<?xml version="1.0" standalone="no"?>
<!DOCTYPE svg PUBLIC "-//W3C//DTD SVG 20010904//EN"
 "http://www.w3.org/TR/2001/REC-SVG-20010904/DTD/svg10.dtd">
<svg version="1.0" xmlns="http://www.w3.org/2000/svg"
 width="577.000000pt" height="430.000000pt" viewBox="0 0 577.000000 430.000000"
 preserveAspectRatio="xMidYMid meet">
<metadata>
Created by potrace 1.16, written by Peter Selinger 2001-2019
</metadata>
<g transform="translate(0.000000,430.000000) scale(0.100000,-0.100000)"
fill="#000000" stroke="none">
<path d="M310 4158 c-58 -29 -130 -101 -158 -159 l-22 -45 0 -1534 0 -1534 22
-45 c29 -60 100 -131 163 -161 l50 -25 718 -3 717 -2 0 -195 0 -195 -288 0
c-267 0 -290 -1 -305 -18 -22 -25 -21 -81 2 -110 l19 -22 1642 0 1642 0 19 23
c24 29 25 89 1 110 -16 15 -53 17 -305 17 l-287 0 0 195 0 195 699 0 c765 0
736 -2 827 60 53 37 109 109 126 163 6 20 15 37 20 37 4 0 8 680 8 1510 0 831
-4 1510 -8 1510 -5 0 -14 17 -20 38 -18 57 -76 128 -139 169 l-56 38 -2521 3
-2521 2 -45 -22z m5076 -113 c30 -19 60 -49 79 -79 l30 -49 0 -1497 0 -1497
-30 -49 c-19 -30 -49 -60 -79 -79 l-49 -30 -2472 0 -2472 0 -49 30 c-30 19
-60 49 -79 79 l-30 49 -3 1476 c-2 998 0 1488 7 1512 18 59 64 114 122 143
l53 26 2461 -2 2462 -3 49 -30z m-1546 -3590 l0 -195 -970 0 -970 0 0 195 0
195 970 0 970 0 0 -195z"/>
<path d="M3663 3580 c-43 -26 -63 -68 -63 -132 l0 -53 -275 -193 -274 -192
-33 20 c-37 22 -112 27 -152 9 -23 -11 -42 -3 -198 83 -165 90 -173 96 -179
129 -13 78 -62 119 -144 119 -92 0 -145 -54 -145 -149 l0 -49 -187 -110 c-252
-146 -227 -135 -262 -117 -39 19 -114 19 -152 0 -93 -48 -93 -212 0 -260 42
-21 119 -19 158 5 38 23 55 51 62 104 l6 40 218 127 218 127 64 -5 c53 -5 70
-2 99 15 l36 21 165 -90 165 -91 0 -42 c0 -50 28 -99 69 -121 38 -19 114 -19
152 0 33 18 69 69 69 100 1 15 81 75 302 229 l301 210 52 -3 c97 -4 155 49
155 142 0 93 -54 147 -145 147 -32 0 -62 -7 -82 -20z"/>
<path d="M4055 3278 c-3 -7 -4 -398 -3 -868 l3 -855 40 0 40 0 0 865 0 865
-38 3 c-24 2 -39 -1 -42 -10z"/>
<path d="M3625 2988 c-3 -7 -4 -332 -3 -723 l3 -710 40 0 40 0 0 720 0 720
-38 3 c-24 2 -39 -1 -42 -10z"/>
<path d="M3205 2728 c-3 -7 -4 -274 -3 -593 l3 -580 40 0 40 0 0 590 0 590
-38 3 c-24 2 -39 -1 -42 -10z"/>
<path d="M2755 2468 c-3 -7 -4 -215 -3 -463 l3 -450 40 0 40 0 0 460 0 460
-38 3 c-24 2 -39 -1 -42 -10z"/>
<path d="M2335 2228 c-3 -7 -4 -162 -3 -343 l3 -330 40 0 40 0 0 340 0 340
-38 3 c-24 2 -39 -1 -42 -10z"/>
<path d="M1975 2008 c-3 -7 -4 -112 -3 -233 l3 -220 40 0 40 0 0 230 0 230
-38 3 c-24 2 -39 -1 -42 -10z"/>
<path d="M1605 1828 c-3 -8 -4 -72 -3 -144 l3 -129 40 0 40 0 0 140 0 140 -38
3 c-24 2 -39 -1 -42 -10z"/>
</g>
</svg>
