<?xml version="1.0" encoding="utf-8"?>
<svg width="61px" height="39px" viewBox="0 0 61 39" version="1.1" xmlns:xlink="http://www.w3.org/1999/xlink" xmlns="http://www.w3.org/2000/svg">
  <desc>Created with Lunacy</desc>
  <g id="check-shield-alternate" opacity="0.03">
    <path d="M8.23716 26.537C9.6691 27.9825 11.993 28.0211 13.4722 26.624L34.7872 6.53895C35.7991 5.62927 36.2389 4.24279 35.9363 2.91613C35.6337 1.58947 34.6362 0.53084 33.3298 0.149975C32.0235 -0.230889 30.6133 0.125786 29.6452 1.08195L10.9912 18.6589L6.45816 14.084C5.52109 13.1057 4.12924 12.7088 2.81716 13.0459C1.50507 13.3829 0.476759 14.4014 0.127135 15.7101C-0.222488 17.0189 0.160939 18.4145 1.13016 19.361L8.23716 26.537Z" transform="translate(13.41748 17.83905)" id="Path" fill="var(--main-color)" stroke="none" />
    <path d="M5.84166 0L54.1567 0C57.3876 0.0115687 60.0007 2.63403 60.0007 5.865L60.0007 23.841C60.0669 43.8439 49.0625 62.2423 31.4077 71.646C30.527 72.1143 29.4713 72.1143 28.5907 71.646C10.9346 62.244 -0.0695051 43.8442 0.000664037 23.841L0.000664037 5.865C-0.00100996 2.63452 2.6112 0.0115724 5.84166 0ZM30.0007 65.571C44.9018 56.968 54.0582 41.0472 54.0007 23.841L54.0007 7.38C54.0007 6.55157 53.3291 5.88 52.5007 5.88L7.50066 6C7.10284 6 6.72131 6.15804 6.44 6.43934C6.1587 6.72064 6.00066 7.10218 6.00066 7.5L6.00066 23.841C5.93872 41.0483 15.0964 56.9712 30.0007 65.571Z" id="Shape" fill="var(--main-color)" fill-rule="evenodd" stroke="none" />
  </g>
</svg>