<?xml version="1.0" encoding="utf-8"?>
<svg width="75px" height="41px" viewBox="0 0 75 41" version="1.1" xmlns:xlink="http://www.w3.org/1999/xlink" xmlns="http://www.w3.org/2000/svg">
  <desc>Created with Lunacy</desc>
  <g id="network-signal" transform="translate(3.75 3.75)" opacity="0.03">
    <path d="M33.75 67.5C52.3896 67.5 67.5 52.3896 67.5 33.75C67.5 15.1104 52.3896 0 33.75 0C15.1104 0 0 15.1104 0 33.75C0 52.3896 15.1104 67.5 33.75 67.5Z" id="Oval" fill="none" stroke="var(--main-color)" stroke-width="7.5" stroke-linecap="round" stroke-linejoin="round" />
    <path d="M0 2.5L63.655 2.5" transform="translate(1.920044 20)" id="Path" fill="none" stroke="var(--main-color)" stroke-width="7.5" stroke-linecap="round" stroke-linejoin="round" />
    <path d="M3.96509 0C-2.08469 21.8579 -1.19362 45.0556 6.51509 66.385" transform="translate(22.5 0.7849121)" id="Path" fill="none" stroke="var(--main-color)" stroke-width="7.5" stroke-linecap="round" stroke-linejoin="round" />
    <path d="M2.53 0C5.17152 9.51335 6.50709 19.3417 6.5 29.215C6.51852 41.8893 4.31867 54.4691 0 66.385" transform="translate(38.5 0.7849121)" id="Path" fill="none" stroke="var(--main-color)" stroke-width="7.5" stroke-linecap="round" stroke-linejoin="round" />
  </g>
</svg>