<?xml version="1.0" encoding="utf-8"?>
<svg width="72px" height="40px" viewBox="0 0 72 40" version="1.1" xmlns:xlink="http://www.w3.org/1999/xlink" xmlns="http://www.w3.org/2000/svg">
  <desc>Created with Lunacy</desc>
  <path d="M63 0C67.9706 0 72 4.0622 72 9.07317L72 52.9268C72 57.9378 67.9706 62 63 62L9 62C4.02944 62 0 57.9378 0 52.9268L0 9.07317C0 4.0622 4.02944 0 9 0L63 0ZM7.776 6.32706C8.25659 5.24287 9.32207 4.54254 10.5 4.53662C11.5528 4.54886 12.5196 5.12492 13.038 6.04882C13.3266 6.50064 13.4864 7.02378 13.5 7.56101C13.4864 8.09825 13.3266 8.62138 13.038 9.07321C12.5283 10.0055 11.5559 10.5845 10.5 10.5845C9.44407 10.5845 8.47171 10.0055 7.962 9.07321C7.67338 8.62138 7.51356 8.09825 7.5 7.56101C7.50276 7.13445 7.5969 6.71353 7.776 6.32706ZM21 4.53748C19.9441 4.53748 18.9717 5.11647 18.462 6.04875C18.1734 6.50058 18.0136 7.02371 18 7.56094C18.0136 8.09818 18.1734 8.62131 18.462 9.07314C18.9717 10.0054 19.9441 10.5844 21 10.5844C22.0559 10.5844 23.0283 10.0054 23.538 9.07314C23.8266 8.62131 23.9864 8.09818 24 7.56094C23.9864 7.02371 23.8266 6.50058 23.538 6.04875C23.0283 5.11647 22.0559 4.53748 21 4.53748ZM28.962 6.04875C29.4717 5.11647 30.4441 4.53748 31.5 4.53748C32.5559 4.53748 33.5283 5.11647 34.038 6.04875C34.3266 6.50058 34.4864 7.02371 34.5 7.56094C34.4864 8.09818 34.3266 8.62131 34.038 9.07314C33.5283 10.0054 32.5559 10.5844 31.5 10.5844C30.4441 10.5844 29.4717 10.0054 28.962 9.07314C28.6734 8.62131 28.5136 8.09818 28.5 7.56094C28.5136 7.02371 28.6734 6.50058 28.962 6.04875ZM63 55.9512C64.6568 55.9512 66 54.5972 66 52.9268L66 15.878C66 15.4605 65.6642 15.1219 65.25 15.1219L6.75 15.1219C6.33579 15.1219 6 15.4605 6 15.878L6 52.9268C6 54.5972 7.34315 55.9512 9 55.9512L63 55.9512Z" id="Shape" fill="var(--main-color)" fill-opacity="0.03" fill-rule="evenodd" stroke="none" />
</svg>