<?xml version="1.0" encoding="utf-8"?>
<svg width="42px" height="42px" viewBox="0 0 42 42" version="1.1" xmlns:xlink="http://www.w3.org/1999/xlink" xmlns="http://www.w3.org/2000/svg">
  <desc>Created with Lunacy</desc>
  <path d="M21 42C32.598 42 42 32.598 42 21C42 9.40202 32.598 0 21 0C9.40202 0 0 9.40202 0 21C0 32.598 9.40202 42 21 42Z" id="Base" fill="#34AA44" stroke="none" />
  <g id="wordpress-simple" transform="translate(11 11)">
    <path d="M0 10C0 4.48387 4.4879 0 10 0C15.5121 0 20 4.48387 20 10C20 15.5121 15.5121 20 10 20C4.4879 20 0 15.5121 0 10ZM11.2379 5.78629C11.7782 5.75806 12.2661 5.70161 12.2661 5.70161C12.75 5.64516 12.6935 4.93145 12.2097 4.95968C12.2097 4.95968 10.754 5.07258 9.81452 5.07258C8.93145 5.07258 7.44758 4.95968 7.44758 4.95968C6.96371 4.93145 6.90726 5.67339 7.39113 5.70161C7.39113 5.70161 7.85081 5.75806 8.33468 5.78629L9.73387 9.625L7.76613 15.5242L4.49194 5.78629C5.03226 5.75806 5.52016 5.70161 5.52016 5.70161C6.00403 5.64516 5.94758 4.93145 5.46371 4.95968C5.46371 4.95968 4.00806 5.07258 3.06855 5.07258C2.89919 5.07258 2.70161 5.06855 2.4879 5.06048C4.09677 2.62097 6.85887 1.00806 10 1.00806C12.3387 1.00806 14.4718 1.90323 16.0726 3.36694C16.0323 3.3629 15.996 3.35887 15.9556 3.35887C15.0726 3.35887 14.4476 4.12903 14.4476 4.95565C14.4476 5.69758 14.875 6.32258 15.3306 7.06452C15.6734 7.66129 16.0726 8.43145 16.0726 9.54435C16.0726 10.3145 15.7782 11.2056 15.3871 12.4516L14.4919 15.4476L11.2379 5.78629ZM17.2661 9.83064L14.5202 17.7702C17.1935 16.2137 18.9919 13.3185 18.9919 10C18.9919 8.43548 18.5927 6.96774 17.8911 5.68548C17.9315 5.97177 17.9516 6.27823 17.9516 6.60887C17.9516 7.52419 17.7782 8.54839 17.2661 9.83064ZM1.00806 10C1.00806 8.69758 1.28629 7.45968 1.78629 6.34274L6.07661 18.0927C3.07661 16.6331 1.00806 13.5565 1.00806 10ZM7.45968 18.625C8.26613 18.8629 9.11694 18.9919 10 18.9919C11.0484 18.9919 12.0524 18.8105 12.9839 18.4839C12.9597 18.4435 12.9395 18.4032 12.9194 18.3589L10.1573 10.7863L7.45968 18.625Z" id="Shape" fill="#FFFFFF" fill-rule="evenodd" stroke="none" />
  </g>
</svg>