<?xml version="1.0" encoding="UTF-8"?>
<svg width="25px" height="25px" viewBox="0 0 25 25" version="1.1" xmlns="http://www.w3.org/2000/svg" xmlns:xlink="http://www.w3.org/1999/xlink">
    <title>Shape</title>
    <g id="Page-1" stroke="none" stroke-width="1" fill="none" fill-rule="evenodd">
        <g id="Sites---Dashboard" transform="translate(-1097.000000, -218.000000)" fill="var(--main-color)" fill-rule="nonzero">
            <g id="Group" transform="translate(165.000000, 173.000000)">
                <g id="Group-16">
                    <g id="iconfinder_cog-settings-alt_353407" transform="translate(932.000000, 45.000000)">
                        <path d="M24.096,10.435 L21.1835,9.889 C21.0065,9.3 20.7745,8.735 20.4875,8.2035 L22.1725,5.74 C22.3285,5.512 22.2965,5.169 22.101,4.974 L20.0235,2.896 C19.828,2.7005 19.4855,2.669 19.2575,2.8245 L16.7935,4.5105 C16.2465,4.2155 15.664,3.979 15.057,3.8005 L14.514,0.9035 C14.4625,0.632 14.198,0.412 13.9215,0.412 L10.983,0.412 C10.7065,0.412 10.442,0.632 10.3905,0.9035 L9.842,3.829 C9.2595,4.007 8.701,4.239 8.175,4.525 L5.742,2.8605 C5.514,2.7045 5.171,2.7365 4.976,2.932 L2.898,5.01 C2.7025,5.2055 2.671,5.548 2.8265,5.776 L4.5015,8.224 C4.2195,8.75 3.991,9.308 3.816,9.8895 L0.904,10.435 C0.633,10.4865 0.413,10.751 0.413,11.0275 L0.413,13.966 C0.413,14.2425 0.633,14.507 0.904,14.5585 L3.814,15.104 C3.9915,15.698 4.2255,16.268 4.5145,16.8035 L2.8585,19.2245 C2.7025,19.4525 2.7345,19.7955 2.93,19.9905 L5.0075,22.0685 C5.203,22.264 5.5455,22.2955 5.7735,22.14 L8.1935,20.4835 C8.714,20.765 9.2665,20.994 9.843,21.171 L10.3915,24.097 C10.443,24.368 10.7075,24.588 10.984,24.588 L13.9225,24.588 C14.199,24.588 14.4635,24.368 14.515,24.097 L15.058,21.199 C15.6585,21.022 16.235,20.7885 16.777,20.4985 L19.228,22.1755 C19.456,22.3315 19.799,22.2995 19.994,22.104 L22.0715,20.027 C22.267,19.8315 22.2985,19.489 22.143,19.261 L20.4755,16.824 C20.77,16.282 21.007,15.7055 21.187,15.104 L24.0965,14.5585 C24.3675,14.507 24.5875,14.2425 24.5875,13.966 L24.5875,11.0275 C24.5875,10.751 24.367,10.4865 24.096,10.435 Z M12.5,17.5425 C9.716,17.5425 7.4585,15.285 7.4585,12.4995 C7.4585,9.716 9.716,7.458 12.5,7.458 C15.285,7.458 17.543,9.716 17.543,12.4995 C17.543,15.285 15.2845,17.5425 12.5,17.5425 Z" id="Shape"></path>
                    </g>
                </g>
            </g>
        </g>
    </g>
</svg>