<?xml version="1.0" encoding="UTF-8"?>
<svg width="21px" height="23px" viewBox="0 0 21 23" version="1.1" xmlns="http://www.w3.org/2000/svg" xmlns:xlink="http://www.w3.org/1999/xlink">
    <title>Group 5</title>
    <defs>
        <linearGradient x1="106.9%" y1="149.5%" x2="29.9%" y2="31.7%" id="linearGradient-1">
            <stop stop-color="#0090DF" offset="0%"></stop>
            <stop stop-color="#0069A0" offset="35.7%"></stop>
            <stop stop-color="#10172F" offset="100%"></stop>
        </linearGradient>
        <radialGradient cx="81.409%" cy="-19.3%" fx="81.409%" fy="-19.3%" r="206.0174%" gradientTransform="translate(0.814090,-0.193000),scale(1.000000,0.780193),translate(-0.814090,0.193000)" id="radialGradient-2">
            <stop stop-color="#0090DF" offset="0%"></stop>
            <stop stop-color="#0376B9" offset="18.6%"></stop>
            <stop stop-color="#0A436F" offset="57.8%"></stop>
            <stop stop-color="#0E2340" offset="86%"></stop>
            <stop stop-color="#10172F" offset="100%"></stop>
        </radialGradient>
        <linearGradient x1="0%" y1="50%" x2="100%" y2="50%" id="linearGradient-3">
            <stop stop-color="#E13510" offset="0%"></stop>
            <stop stop-color="#E1360F" offset="26.8%"></stop>
            <stop stop-color="#E33D0E" offset="36.5%"></stop>
            <stop stop-color="#E5490B" offset="43.4%"></stop>
            <stop stop-color="#E95A07" offset="48.9%"></stop>
            <stop stop-color="#EF7002" offset="53.6%"></stop>
            <stop stop-color="#F27C00" offset="55.7%"></stop>
        </linearGradient>
        <linearGradient x1="0%" y1="50%" x2="100%" y2="50%" id="linearGradient-4">
            <stop stop-color="#E13510" offset="0%"></stop>
            <stop stop-color="#E1360F" offset="26.8%"></stop>
            <stop stop-color="#E33D0E" offset="36.5%"></stop>
            <stop stop-color="#E5490B" offset="43.4%"></stop>
            <stop stop-color="#E95A07" offset="48.9%"></stop>
            <stop stop-color="#EF7002" offset="53.6%"></stop>
            <stop stop-color="#F27C00" offset="55.7%"></stop>
        </linearGradient>
        <linearGradient x1="0%" y1="50%" x2="100%" y2="50%" id="linearGradient-5">
            <stop stop-color="#E13510" offset="0%"></stop>
            <stop stop-color="#E1360F" offset="26.8%"></stop>
            <stop stop-color="#E33D0E" offset="36.5%"></stop>
            <stop stop-color="#E5490B" offset="43.4%"></stop>
            <stop stop-color="#E95A07" offset="48.9%"></stop>
            <stop stop-color="#EF7002" offset="53.6%"></stop>
            <stop stop-color="#F27C00" offset="55.7%"></stop>
        </linearGradient>
        <linearGradient x1="0%" y1="50%" x2="100%" y2="50%" id="linearGradient-6">
            <stop stop-color="#E13510" offset="0%"></stop>
            <stop stop-color="#E1360F" offset="26.8%"></stop>
            <stop stop-color="#E33D0E" offset="36.5%"></stop>
            <stop stop-color="#E5490B" offset="43.4%"></stop>
            <stop stop-color="#E95A07" offset="48.9%"></stop>
            <stop stop-color="#EF7002" offset="53.6%"></stop>
            <stop stop-color="#F27C00" offset="55.7%"></stop>
        </linearGradient>
        <linearGradient x1="0%" y1="50%" x2="100%" y2="50%" id="linearGradient-7">
            <stop stop-color="#E13510" offset="0%"></stop>
            <stop stop-color="#E1360F" offset="26.8%"></stop>
            <stop stop-color="#E33D0E" offset="36.5%"></stop>
            <stop stop-color="#E5490B" offset="43.4%"></stop>
            <stop stop-color="#E95A07" offset="48.9%"></stop>
            <stop stop-color="#EF7002" offset="53.6%"></stop>
            <stop stop-color="#F27C00" offset="55.7%"></stop>
        </linearGradient>
    </defs>
    <g id="Page-1" stroke="none" stroke-width="1" fill="none" fill-rule="evenodd">
        <g id="Dashboard" transform="translate(-1089.000000, -820.000000)" fill-rule="nonzero">
            <g id="Graph-Copy" transform="translate(924.000000, 677.000000)">
                <g id="Group-2" transform="translate(30.000000, 117.000000)">
                    <g id="Group-5" transform="translate(135.000000, 26.000000)">
                        <path d="M15.7455,5.58785 C17.9057226,7.87094432 18.4999,11.2206571 17.2567206,14.1074523 C16.0135412,16.9942474 13.1715505,18.864197 10.02845,18.86345 C9.72008462,18.8629326 9.41201176,18.8444345 9.1058,18.80805 L7.3836,20.66645 C8.24552445,20.9020731 9.13504978,21.0215621 10.0286,21.02175 C15.56715,21.02175 20.0569558,16.532 20.0569558,10.99325 C20.0596986,8.43852503 19.083359,5.97987218 17.32875,4.123 L15.7455,5.58785 Z" id="Path_9" fill="url(#linearGradient-1)"></path>
                        <path d="M2.15835,10.99325 C2.15794317,8.610895 3.23690568,6.35663055 5.09263483,4.86268114 C6.94836398,3.36873174 9.38102103,2.79597697 11.70835,3.30505 L13.4157,1.55365 C12.3290872,1.16359679 11.183149,0.964608419 10.02865,0.965497017 C4.48995,0.965497017 0.00019402301,5.4555 0.00019402301,10.99325 C-0.00274863285,13.6916695 1.0854025,16.2766551 3.0173,18.1606 C3.5644,17.50855 4.0223,16.9262 4.37175,16.4631 C2.95023289,14.9973393 2.15620466,13.0351023 2.15835,10.99325 Z" id="Path_10" fill="url(#radialGradient-2)"></path>
                        <polygon id="Path_11" fill="url(#linearGradient-3)" points="8.62045 14.23815 2.25835 22.26255 11.4174 14.23815"></polygon>
                        <polygon id="Path_12" fill="url(#linearGradient-4)" points="11.3674 14.2807 13.77015 12.1757 7.36165 12.1757 5.28165 14.2807"></polygon>
                        <polygon id="Path_13" fill="url(#linearGradient-5)" points="10.5358 12.2256 13.662 8.9626 10.5358 8.9626 7.31155 12.2256"></polygon>
                        <polygon id="Path_14" fill="url(#linearGradient-6)" points="13.612 9.0126 15.82045 6.7076 10.0228 6.7076 7.33355 9.0126"></polygon>
                        <polygon id="Path_15" fill="url(#linearGradient-7)" points="12.73805 6.70755 17.84805 5.68434189e-15 10.0228 6.70755"></polygon>
                    </g>
                </g>
            </g>
        </g>
    </g>
</svg>