<?xml version="1.0" encoding="utf-8"?>
<svg width="11px" height="12px" viewBox="0 0 11 12" version="1.1" xmlns:xlink="http://www.w3.org/1999/xlink" xmlns="http://www.w3.org/2000/svg">
  <desc>Created with Lunacy</desc>
  <g id="database-2-alternate">
    <path d="M0 2.495C0.0065 0.874 2.708 0 5.25 0C7.7955 0 10.5 0.876 10.5 2.5L10.5 8.875C10.5 10.499 7.7955 11.375 5.25 11.375C2.7045 11.375 0 10.499 0 8.875L0 2.495ZM5.25 4C7.8405 4 9.4945 3.112 9.5 2.5C9.5 1.8865 7.844 1 5.25 1C2.656 1 1 1.8885 1 2.5C1 3.1115 2.6595 4 5.25 4ZM9.5 4.625C9.5 5.2365 7.844 6.125 5.25 6.125C2.656 6.125 1 5.2365 1 4.625L1 4.2305C0.999732 4.18604 1.02319 4.14481 1.06155 4.12233C1.09991 4.09985 1.14734 4.09954 1.186 4.1215C2.45088 4.73524 3.84456 5.0365 5.25 5C6.65522 5.03642 8.04868 4.73534 9.3135 4.122C9.35223 4.10011 9.39967 4.10046 9.43808 4.1229C9.47648 4.14535 9.50006 4.18652 9.5 4.231L9.5 4.625ZM5.25 8.25C7.844 8.25 9.5 7.3615 9.5 6.75L9.5 6.3545C9.49964 6.31027 9.4761 6.26947 9.438 6.247C9.39948 6.22476 9.35202 6.22476 9.3135 6.247C8.04866 6.86028 6.65521 7.16136 5.25 7.125C3.84463 7.1614 2.45101 6.86032 1.186 6.247C1.14742 6.22508 1.10009 6.22535 1.06177 6.24771C1.02344 6.27007 0.999911 6.31113 1 6.3555L1 6.75C1 7.3615 2.656 8.25 5.25 8.25ZM9.5 8.875C9.5 9.4865 7.844 10.375 5.25 10.375C2.656 10.375 1 9.4865 1 8.875L1 8.4805C0.999911 8.43613 1.02344 8.39507 1.06177 8.37271C1.10009 8.35035 1.14742 8.35008 1.186 8.372C2.45101 8.98532 3.84463 9.2864 5.25 9.25C6.65521 9.28636 8.04866 8.98528 9.3135 8.372C9.35202 8.34976 9.39948 8.34976 9.438 8.372C9.4761 8.39447 9.49964 8.43527 9.5 8.4795L9.5 8.875Z" id="Shape" fill="#3E3F42" fill-rule="evenodd" stroke="none" />
  </g>
</svg>