<?xml version="1.0" encoding="utf-8"?>
<svg width="15px" height="11px" viewBox="0 0 15 11" version="1.1" xmlns:xlink="http://www.w3.org/1999/xlink" xmlns="http://www.w3.org/2000/svg">
  <desc>Created with Lunacy</desc>
  <g id="gauge-dashboard-alternate">
    <path d="M0 7.2C0.00429891 3.22533 3.22533 0.00429891 7.2 0C11.1747 0.00429891 14.3957 3.22533 14.4 7.2L14.4 8.6346C14.399 9.59947 13.6171 10.3814 12.6522 10.3824L1.7478 10.3824C0.782928 10.3814 0.000992157 9.59947 0 8.6346L0 7.2ZM1.748 9.18L12.6524 9.18L12.6524 9.1824C12.7978 9.18224 12.9373 9.12431 13.04 9.02135C13.1427 8.91839 13.2004 8.77884 13.2002 8.6334L13.2002 7.8312L11.7002 7.8312C11.4517 7.8312 11.2502 7.62972 11.2502 7.3812C11.2502 7.13267 11.4517 6.9312 11.7002 6.9312L13.1942 6.9312C13.1614 6.18981 12.9902 5.46109 12.6896 4.7826L11.4722 5.4858C11.2568 5.61006 10.9815 5.53619 10.8572 5.3208C10.7329 5.10541 10.8068 4.83006 11.0222 4.7058L12.2642 3.9858C11.2491 2.38662 9.53889 1.36026 7.6502 1.2168L7.6502 2.5824C7.6502 2.74317 7.56443 2.89172 7.4252 2.97211C7.28596 3.05249 7.11443 3.05249 6.97519 2.97211C6.83596 2.89172 6.7502 2.74317 6.7502 2.5824L6.7502 1.2168C5.92188 1.27798 5.11556 1.51201 4.3832 1.9038L5.0798 3.1104C5.13959 3.21374 5.15586 3.33661 5.12502 3.45196C5.09419 3.56731 5.01878 3.66567 4.9154 3.7254C4.69949 3.84565 4.42711 3.77257 4.3004 3.5604L3.6224 2.3862C3.03413 2.82347 2.5305 3.36431 2.1362 3.9822L3.3782 4.7022C3.59359 4.82646 3.66746 5.10181 3.5432 5.3172C3.41893 5.53259 3.14359 5.60646 2.9282 5.4822L1.7108 4.7778C1.40956 5.45778 1.23841 6.18818 1.2062 6.9312L2.7002 6.9312C2.94872 6.9312 3.1502 7.13267 3.1502 7.3812C3.1502 7.62972 2.94872 7.8312 2.7002 7.8312L1.2002 7.8312L1.2002 8.6346C1.20184 8.93606 1.44652 9.17967 1.748 9.18Z" id="Shape" fill="var(--main-color)" fill-rule="evenodd" stroke="none" />
    <path d="M4.09328 0.0726134C3.99322 0.00757027 3.8714 -0.0150027 3.75468 0.00987216C3.63796 0.034747 3.53593 0.105027 3.47108 0.205213L1.67108 2.97661C1.03077 2.82144 0.371815 3.15026 0.110805 3.7552C-0.150205 4.36014 0.0626943 5.06513 0.614908 5.42449C1.16712 5.78384 1.89793 5.69297 2.34533 5.20933C2.79272 4.72568 2.82649 3.99001 2.42528 3.46741L4.22528 0.695413C4.36056 0.486934 4.3015 0.20829 4.09328 0.0726134Z" transform="translate(5.845703 2.793701)" id="Path" fill="var(--main-color)" stroke="none" />
  </g>
</svg>