<?xml version="1.0" encoding="utf-8"?>
<svg width="10px" height="10px" viewBox="0 0 10 10" version="1.1" xmlns:xlink="http://www.w3.org/1999/xlink" xmlns="http://www.w3.org/2000/svg">
  <desc>Created with Lunacy</desc>
  <g id="graph-stats-square-alternate">
    <path d="M1.2 0L8.4 0C9.06274 0 9.6 0.537258 9.6 1.2L9.6 8.4C9.6 9.06274 9.06274 9.6 8.4 9.6L1.2 9.6C0.537258 9.6 0 9.06274 0 8.4L0 1.2C0 0.537258 0.537258 0 1.2 0ZM1.2 0.8L8.4 0.8C8.62091 0.8 8.8 0.979086 8.8 1.2L8.8 5.012L7.7416 5.012C7.4732 5.012 7.3772 4.8488 7.1388 4.2C7.0964 4.0856 7.0532 3.9672 7.0048 3.8468C6.90782 3.60397 6.66474 3.45191 6.40395 3.47093C6.14317 3.48995 5.92472 3.67567 5.864 3.93L5.2304 6.57L4.1864 1.48C4.12851 1.20178 3.88417 1.00177 3.6 1C3.31454 0.999561 3.06829 1.20031 3.0112 1.48C2.882 2.1004 2.7812 2.6272 2.696 3.0728C2.3484 4.8944 2.2784 5.0144 1.9496 5.0144L0.8 5.0144L0.8 1.2C0.8 0.979086 0.979086 0.8 1.2 0.8ZM1.2 8.8L8.4 8.8C8.62091 8.8 8.8 8.62091 8.8 8.4L8.8 5.8124L7.7428 5.8124C7.004 5.8124 6.7068 5.292 6.492 4.7488L5.8 7.6316C5.73713 7.90343 5.4942 8.09535 5.2152 8.0936L5.2048 8.0936C4.92316 8.08983 4.68245 7.88979 4.6272 7.6136L3.6 2.6052C3.6 2.6052 3.52 3.0308 3.482 3.2204C3.132 5.052 2.9896 5.812 1.9496 5.812L0.8 5.812L0.8 8.4C0.8 8.62091 0.979086 8.8 1.2 8.8Z" id="Shape" fill="#3E3F42" fill-rule="evenodd" stroke="none" />
  </g>
</svg>