<?xml version="1.0" encoding="utf-8"?>
<svg width="12px" height="12px" viewBox="0 0 12 12" version="1.1" xmlns:xlink="http://www.w3.org/1999/xlink" xmlns="http://www.w3.org/2000/svg">
  <desc>Created with Lunacy</desc>
  <g id="loading">
    <path d="M0.75 3C1.16421 3 1.5 2.66421 1.5 2.25L1.5 0.75C1.5 0.335786 1.16421 5.55112e-17 0.75 0C0.335786 -5.55112e-17 0 0.335786 0 0.75L0 2.25C0 2.66421 0.335786 3 0.75 3Z" transform="translate(5 0)" id="Path" fill="#3E3F42" stroke="none" />
    <path d="M2.34109 1.27217L1.28009 0.211668C0.982919 -0.0705559 0.51676 -0.0705559 0.21959 0.211668C-0.0731966 0.504543 -0.0731966 0.979293 0.21959 1.27217L0.21959 1.27217L1.28059 2.33267C1.42108 2.47359 1.61211 2.55244 1.81109 2.55167L1.81109 2.55167C2.11401 2.5512 2.38691 2.36855 2.50284 2.08869C2.61876 1.80882 2.55495 1.4867 2.34109 1.27217Z" transform="translate(1.543945 1.530884)" id="Path" fill="#3E3F42" stroke="none" />
    <path d="M5.55112e-17 0.75C5.55112e-17 1.16421 0.335786 1.5 0.75 1.5L2.25 1.5C2.66421 1.5 3 1.16421 3 0.75C3 0.335786 2.66421 0 2.25 0L0.75 0C0.335786 0 5.55112e-17 0.335786 5.55112e-17 0.75Z" transform="translate(0 5)" id="Path" fill="#3E3F42" stroke="none" />
    <path d="M1.79508 0.0025L1.79508 0.0025C1.59624 0.00174581 1.40538 0.0806114 1.26508 0.2215L0.204077 1.2825C-0.0743897 1.57811 -0.0669781 2.04166 0.220797 2.32822C0.508572 2.61478 0.972152 2.62022 1.26658 2.3405L2.32758 1.2795C2.54151 1.0649 2.60528 0.742658 2.48923 0.46275C2.37318 0.182842 2.10009 0.000266081 1.79708 0L1.79508 0.0025Z" transform="translate(1.433594 7.509521)" id="Path" fill="#3E3F42" stroke="none" />
    <path d="M0 2.25C0 2.66421 0.335786 3 0.75 3C1.16421 3 1.5 2.66421 1.5 2.25L1.5 0.75C1.5 0.335786 1.16421 0 0.75 0C0.335786 0 0 0.335786 0 0.75L0 2.25Z" transform="translate(5 8.5)" id="Path" fill="#3E3F42" stroke="none" />
    <path d="M0.21959 0.221845C-0.0731966 0.51472 -0.0731966 0.98947 0.21959 1.28235L1.28059 2.34285C1.57372 2.6368 2.04964 2.63747 2.34359 2.34435C2.63754 2.05122 2.63822 1.5753 2.34509 1.28135L1.28159 0.218845C1.14049 0.0781791 0.949209 -0.000559832 0.749968 2.9967e-06C0.550726 0.000565825 0.359897 0.0803842 0.21959 0.221845Z" transform="translate(7.554688 7.531128)" id="Path" fill="#3E3F42" stroke="none" />
    <path d="M3 0.75C3 0.335786 2.66421 0 2.25 0L0.75 0C0.335786 0 0 0.335786 0 0.75L0 0.75C0 1.16421 0.335786 1.5 0.75 1.5L2.25 1.5C2.66421 1.5 3 1.16421 3 0.75Z" transform="translate(8.5 5)" id="Path" fill="#3E3F42" stroke="none" />
    <path d="M1.81009 5.35982e-06L1.81009 5.35982e-06C1.61126 -0.000748827 1.4204 0.0781168 1.28009 0.219005L0.22009 1.27901C0.0791808 1.41969 0 1.61064 0 1.80976C0 2.00887 0.0791808 2.19982 0.22009 2.34051L0.22009 2.34051C0.512965 2.63329 0.987715 2.63329 1.28059 2.34051L2.34109 1.28051C2.5558 1.06594 2.62 0.743107 2.50373 0.462715C2.38745 0.182324 2.11363 -0.000334752 1.81009 5.35982e-06Z" transform="translate(7.461914 1.454956)" id="Path" fill="#3E3F42" stroke="none" />
  </g>
</svg>