<?xml version="1.0" encoding="utf-8"?>
<svg width="15px" height="12px" viewBox="0 0 15 12" version="1.1" xmlns:xlink="http://www.w3.org/1999/xlink" xmlns="http://www.w3.org/2000/svg">
  <desc>Created with Lunacy</desc>
  <g id="multiple-users-add" transform="translate(0.4003906 0.4000244)">
    <path d="M0 10.4C0.00777807 9.65735 0.161352 8.92346 0.452 8.24C0.772 7.6 2.1024 7.16 3.7744 6.5408C4.2264 6.3736 4.152 5.1936 3.952 4.9728C3.30742 4.27433 2.99163 3.33394 3.084 2.388C3.02608 1.7857 3.2211 1.18643 3.62238 0.733564C4.02366 0.280699 4.59511 0.0149854 5.2 0C5.80489 0.0149854 6.37634 0.280699 6.77762 0.733564C7.1789 1.18643 7.37392 1.7857 7.316 2.388C7.40861 3.33421 7.0928 4.27494 6.448 4.9736C6.248 5.1944 6.1736 6.3744 6.6256 6.5416C8.2976 7.1608 9.6288 7.6032 9.948 8.2408C10.2386 8.92426 10.3922 9.65815 10.4 10.4008L0 10.4Z" id="Path" fill="none" stroke="#47484B" stroke-width="0.799999952" stroke-linecap="round" stroke-linejoin="round" />
    <path d="M0 0.189614C0.272816 0.0636383 0.569905 -0.00107699 0.8704 1.35571e-05C1.47529 0.0149989 2.04674 0.280713 2.44802 0.733578C2.8493 1.18644 3.04432 1.78572 2.9864 2.38801C3.07901 3.33422 2.7632 4.27495 2.1184 4.97361C1.9184 5.19441 1.844 6.37441 2.296 6.54161C3.968 7.16081 5.2992 7.60321 5.6184 8.24081C5.6376 8.28001 5.6568 8.32081 5.6744 8.36081" transform="translate(8.330078 0)" id="Path" fill="none" stroke="#47484B" stroke-width="0.799999952" stroke-linecap="round" stroke-linejoin="round" />
  </g>
</svg>