<?xml version="1.0" encoding="utf-8"?>
<svg width="15px" height="15px" viewBox="0 0 15 15" version="1.1" xmlns:xlink="http://www.w3.org/1999/xlink" xmlns="http://www.w3.org/2000/svg">
  <desc>Created with Lunacy</desc>
  <g id="multiple-users-1" transform="translate(0.4492188 0.4499512)">
    <path d="M2.025 4.05C3.14338 4.05 4.05 3.14338 4.05 2.025C4.05 0.906623 3.14338 0 2.025 0C0.906623 0 0 0.906623 0 2.025C0 3.14338 0.906623 4.05 2.025 4.05Z" transform="translate(4.425781 0)" id="Oval" fill="none" stroke="#47484B" stroke-width="0.900000036" stroke-linecap="round" stroke-linejoin="round" />
    <path d="M4.8636 0.939564C3.48441 -0.313188 1.37919 -0.313188 0 0.939564" transform="translate(4.019531 4.910522)" id="Path" fill="none" stroke="#47484B" stroke-width="0.900000036" stroke-linecap="round" stroke-linejoin="round" />
    <path d="M3.8658 0.9102C3.5001 1.01558 3.12138 1.0689 2.7408 1.0686C1.72526 1.07011 0.746513 0.68851 0 0" transform="translate(4.609375 1.181396)" id="Path" fill="none" stroke="#47484B" stroke-width="0.900000036" stroke-linecap="round" stroke-linejoin="round" />
    <path d="M2.025 4.05C3.14338 4.05 4.05 3.14338 4.05 2.025C4.05 0.906624 3.14338 0 2.025 0C0.906623 0 0 0.906624 0 2.025C0 3.14338 0.906623 4.05 2.025 4.05Z" transform="translate(8.625 7.200073)" id="Oval" fill="none" stroke="#47484B" stroke-width="0.900000036" stroke-linecap="round" stroke-linejoin="round" />
    <path d="M5.7 1.39073C5.01483 0.513037 3.96347 0 2.85 0C1.73654 0 0.685175 0.513037 0 1.39073" transform="translate(7.800781 12.10938)" id="Path" fill="none" stroke="#47484B" stroke-width="0.900000036" stroke-linecap="round" stroke-linejoin="round" />
    <path d="M3.8658 0.9102C2.50664 1.30158 1.04176 0.956678 0 0" transform="translate(8.810547 8.38147)" id="Path" fill="none" stroke="#47484B" stroke-width="0.900000036" stroke-linecap="round" stroke-linejoin="round" />
    <path d="M2.025 4.05C3.14338 4.05 4.05 3.14338 4.05 2.025C4.05 0.906624 3.14338 0 2.025 0C0.906623 0 0 0.906624 0 2.025C0 3.14338 0.906623 4.05 2.025 4.05Z" transform="translate(0.8261719 7.200073)" id="Oval" fill="none" stroke="#47484B" stroke-width="0.900000036" stroke-linecap="round" stroke-linejoin="round" />
    <path d="M5.7 1.39073C5.01483 0.513037 3.96346 0 2.85 0C1.73654 0 0.685175 0.513037 0 1.39073" transform="translate(0 12.10938)" id="Path" fill="none" stroke="#47484B" stroke-width="0.900000036" stroke-linecap="round" stroke-linejoin="round" />
    <path d="M3.8658 0.9102C2.50664 1.30158 1.04176 0.956678 0 0" transform="translate(1.009766 8.38147)" id="Path" fill="none" stroke="#47484B" stroke-width="0.900000036" stroke-linecap="round" stroke-linejoin="round" />
  </g>
</svg>