<?xml version="1.0" encoding="utf-8"?>
<svg width="14px" height="10px" viewBox="0 0 14 10" version="1.1" xmlns:xlink="http://www.w3.org/1999/xlink" xmlns="http://www.w3.org/2000/svg">
  <desc>Created with Lunacy</desc>
  <g id="navigation-menu-2">
    <path d="M0.824 0L9.076 0Q9.15716 0 9.23675 0.0158329Q9.31635 0.0316659 9.39133 0.0627233Q9.46631 0.0937807 9.53379 0.138869Q9.60127 0.183957 9.65866 0.241344Q9.71604 0.298731 9.76113 0.36621Q9.80622 0.43369 9.83728 0.508669Q9.86833 0.583648 9.88417 0.663245Q9.9 0.742843 9.9 0.824L9.9 1.376Q9.9 1.45716 9.88417 1.53675Q9.86833 1.61635 9.83728 1.69133Q9.80622 1.76631 9.76113 1.83379Q9.71604 1.90127 9.65866 1.95866Q9.60127 2.01604 9.53379 2.06113Q9.46631 2.10622 9.39133 2.13728Q9.31635 2.16833 9.23675 2.18417Q9.15716 2.2 9.076 2.2L0.824 2.2Q0.742843 2.2 0.663245 2.18417Q0.583648 2.16833 0.508669 2.13728Q0.43369 2.10622 0.36621 2.06113Q0.298731 2.01604 0.241344 1.95866Q0.183957 1.90127 0.138869 1.83379Q0.0937807 1.76631 0.0627233 1.69133Q0.0316659 1.61635 0.0158329 1.53675Q0 1.45716 0 1.376L0 0.824Q0 0.742843 0.0158329 0.663246Q0.0316659 0.583648 0.0627233 0.508669Q0.0937807 0.43369 0.138869 0.36621Q0.183957 0.298731 0.241344 0.241344Q0.298731 0.183957 0.36621 0.138869Q0.43369 0.0937807 0.508669 0.0627233Q0.583648 0.0316659 0.663246 0.0158329Q0.742843 0 0.824 0L0.824 0Z" transform="translate(3.299805 0)" id="Rectangle" fill="#3E3F42" stroke="none" />
    <path d="M0.824 0L9.076 0Q9.15716 0 9.23675 0.0158329Q9.31635 0.0316659 9.39133 0.0627233Q9.46631 0.0937807 9.53379 0.138869Q9.60127 0.183957 9.65866 0.241344Q9.71604 0.298731 9.76113 0.36621Q9.80622 0.43369 9.83728 0.508669Q9.86834 0.583648 9.88417 0.663245Q9.9 0.742843 9.9 0.824L9.9 1.376Q9.9 1.45716 9.88417 1.53675Q9.86834 1.61635 9.83728 1.69133Q9.80622 1.76631 9.76113 1.83379Q9.71604 1.90127 9.65866 1.95866Q9.60127 2.01604 9.53379 2.06113Q9.46631 2.10622 9.39133 2.13728Q9.31635 2.16833 9.23675 2.18417Q9.15716 2.2 9.076 2.2L0.824 2.2Q0.742843 2.2 0.663245 2.18417Q0.583648 2.16833 0.508669 2.13728Q0.43369 2.10622 0.36621 2.06113Q0.298731 2.01604 0.241344 1.95866Q0.183957 1.90127 0.138869 1.83379Q0.0937807 1.76631 0.0627233 1.69133Q0.0316659 1.61635 0.0158329 1.53675Q0 1.45716 0 1.376L0 0.824Q0 0.742843 0.0158329 0.663245Q0.0316659 0.583648 0.0627233 0.508669Q0.0937807 0.43369 0.138869 0.36621Q0.183957 0.298731 0.241344 0.241344Q0.298731 0.183957 0.36621 0.138869Q0.43369 0.0937807 0.508669 0.0627233Q0.583648 0.0316659 0.663245 0.0158329Q0.742843 0 0.824 0L0.824 0Z" transform="translate(1.650391 3.849976)" id="Rectangle" fill="#3E3F42" stroke="none" />
    <path d="M0.824 0L9.076 0Q9.15716 0 9.23675 0.0158329Q9.31635 0.0316659 9.39133 0.0627233Q9.46631 0.0937807 9.53379 0.138869Q9.60127 0.183957 9.65866 0.241344Q9.71604 0.298731 9.76113 0.36621Q9.80622 0.43369 9.83728 0.508669Q9.86833 0.583648 9.88417 0.663245Q9.9 0.742843 9.9 0.824L9.9 1.376Q9.9 1.45716 9.88417 1.53675Q9.86833 1.61635 9.83728 1.69133Q9.80622 1.76631 9.76113 1.83379Q9.71604 1.90127 9.65866 1.95866Q9.60127 2.01604 9.53379 2.06113Q9.46631 2.10622 9.39133 2.13728Q9.31635 2.16833 9.23675 2.18417Q9.15716 2.2 9.076 2.2L0.824 2.2Q0.742843 2.2 0.663245 2.18417Q0.583648 2.16833 0.508669 2.13728Q0.43369 2.10622 0.36621 2.06113Q0.298731 2.01604 0.241344 1.95866Q0.183957 1.90127 0.138869 1.83379Q0.0937807 1.76631 0.0627233 1.69133Q0.0316659 1.61635 0.0158329 1.53675Q0 1.45716 0 1.376L0 0.824Q0 0.742843 0.0158329 0.663246Q0.0316659 0.583648 0.0627233 0.508669Q0.0937807 0.43369 0.138869 0.36621Q0.183957 0.298731 0.241344 0.241344Q0.298731 0.183957 0.36621 0.138869Q0.43369 0.0937807 0.508669 0.0627233Q0.583648 0.0316659 0.663246 0.0158329Q0.742843 0 0.824 0L0.824 0Z" transform="translate(0 7.699951)" id="Rectangle" fill="#3E3F42" stroke="none" />
  </g>
</svg>