<?xml version="1.0" encoding="UTF-8"?>
<svg xmlns="http://www.w3.org/2000/svg" xmlns:xlink="http://www.w3.org/1999/xlink" width="14pt" height="14pt" viewBox="0 0 14 14" version="1.1">
<g id="surface1">
<path style=" stroke:none;fill-rule:nonzero;fill:rgb(0%,0%,0%);fill-opacity:1;" d="M 10.175781 0.320312 C 9.753906 -0.101562 9.019531 -0.101562 8.601562 0.320312 L 5.609375 3.3125 C 5.496094 3.425781 5.496094 3.609375 5.609375 3.722656 C 5.722656 3.835938 5.90625 3.835938 6.023438 3.722656 L 9.011719 0.730469 C 9.210938 0.53125 9.558594 0.527344 9.765625 0.734375 C 9.972656 0.941406 9.972656 1.28125 9.765625 1.484375 L 6.777344 4.472656 C 6.664062 4.585938 6.664062 4.773438 6.777344 4.886719 C 6.835938 4.941406 6.910156 4.972656 6.984375 4.972656 C 7.058594 4.972656 7.132812 4.941406 7.191406 4.886719 L 10.179688 1.898438 C 10.613281 1.464844 10.613281 0.757812 10.175781 0.320312 Z M 10.175781 0.320312 "/>
<path style=" stroke:none;fill-rule:nonzero;fill:rgb(0%,0%,0%);fill-opacity:1;" d="M 13.671875 3.816406 C 13.25 3.398438 12.519531 3.394531 12.097656 3.816406 L 9.117188 6.800781 C 9 6.914062 9 7.097656 9.117188 7.210938 C 9.230469 7.324219 9.414062 7.324219 9.527344 7.210938 L 12.507812 4.230469 C 12.710938 4.03125 13.054688 4.027344 13.261719 4.234375 C 13.46875 4.441406 13.46875 4.777344 13.261719 4.984375 L 10.285156 7.964844 C 10.171875 8.078125 10.171875 8.261719 10.285156 8.375 C 10.339844 8.429688 10.414062 8.460938 10.492188 8.460938 C 10.566406 8.460938 10.640625 8.433594 10.695312 8.375 L 13.675781 5.394531 C 14.109375 4.960938 14.109375 4.257812 13.671875 3.816406 Z M 13.671875 3.816406 "/>
<path style=" stroke:none;fill-rule:nonzero;fill:rgb(0%,0%,0%);fill-opacity:1;" d="M 2.539062 10.292969 C 2.425781 10.179688 2.238281 10.179688 2.125 10.292969 L 0.0859375 12.332031 C -0.0273438 12.445312 -0.0273438 12.632812 0.0859375 12.746094 C 0.140625 12.800781 0.21875 12.828125 0.292969 12.828125 C 0.367188 12.828125 0.441406 12.800781 0.496094 12.746094 L 2.539062 10.703125 C 2.652344 10.589844 2.652344 10.40625 2.539062 10.292969 Z M 2.539062 10.292969 "/>
<path style=" stroke:none;fill-rule:nonzero;fill:rgb(0%,0%,0%);fill-opacity:1;" d="M 3.703125 11.457031 C 3.589844 11.34375 3.40625 11.34375 3.292969 11.457031 L 1.25 13.5 C 1.136719 13.613281 1.136719 13.796875 1.25 13.910156 C 1.308594 13.96875 1.382812 13.996094 1.457031 13.996094 C 1.53125 13.996094 1.605469 13.96875 1.664062 13.910156 L 3.703125 11.871094 C 3.816406 11.757812 3.816406 11.570312 3.703125 11.457031 Z M 3.703125 11.457031 "/>
<path style=" stroke:none;fill-rule:nonzero;fill:rgb(0%,0%,0%);fill-opacity:1;" d="M 11.589844 8.851562 L 5.144531 2.4375 C 5.03125 2.324219 4.847656 2.324219 4.734375 2.4375 L 3.582031 3.589844 C 3.527344 3.644531 3.496094 3.71875 3.496094 3.792969 C 3.496094 3.871094 3.527344 3.945312 3.582031 4 L 3.960938 4.378906 L 2.148438 6.191406 C 1.539062 6.796875 1.207031 7.601562 1.207031 8.457031 C 1.207031 9.316406 1.539062 10.121094 2.148438 10.726562 L 3.269531 11.851562 C 3.894531 12.476562 4.714844 12.789062 5.539062 12.789062 C 6.359375 12.789062 7.179688 12.472656 7.804688 11.847656 L 9.617188 10.035156 L 9.996094 10.414062 C 10.109375 10.523438 10.289062 10.527344 10.40625 10.414062 L 11.585938 9.265625 C 11.640625 9.210938 11.675781 9.136719 11.675781 9.058594 C 11.675781 8.980469 11.644531 8.90625 11.589844 8.851562 Z M 10.203125 9.796875 L 9.824219 9.417969 C 9.714844 9.308594 9.523438 9.308594 9.414062 9.417969 L 7.394531 11.4375 C 6.371094 12.460938 4.707031 12.460938 3.683594 11.4375 L 2.558594 10.3125 C 2.0625 9.816406 1.789062 9.160156 1.789062 8.457031 C 1.789062 7.757812 2.0625 7.097656 2.558594 6.601562 L 4.578125 4.582031 C 4.691406 4.46875 4.691406 4.285156 4.578125 4.171875 L 4.203125 3.792969 L 4.941406 3.054688 L 10.96875 9.054688 Z M 10.203125 9.796875 "/>
</g>
</svg>
