<?xml version="1.0" encoding="UTF-8"?>
<svg xmlns="http://www.w3.org/2000/svg" xmlns:xlink="http://www.w3.org/1999/xlink" width="14pt" height="14pt" viewBox="0 0 14 14" version="1.1">
<g id="surface1">
<path style=" stroke:none;fill-rule:nonzero;fill:rgb(0%,0%,0%);fill-opacity:1;" d="M 9.875 0.820312 C 9.875 0.367188 9.503906 0 9.050781 0 C 8.597656 0 8.230469 0.367188 8.230469 0.820312 L 8.230469 2.074219 L 9.875 2.074219 Z M 9.875 0.820312 "/>
<path style=" stroke:none;fill-rule:nonzero;fill:rgb(0%,0%,0%);fill-opacity:1;" d="M 5.769531 0.820312 C 5.769531 0.367188 5.402344 0 4.949219 0 C 4.496094 0 4.125 0.367188 4.125 0.820312 L 4.125 2.074219 L 5.769531 2.074219 Z M 5.769531 0.820312 "/>
<path style=" stroke:none;fill-rule:nonzero;fill:rgb(0%,0%,0%);fill-opacity:1;" d="M 11.925781 5.359375 L 11.925781 3.714844 L 9.875 3.714844 L 9.875 2.894531 L 8.230469 2.894531 L 8.230469 3.714844 L 5.769531 3.714844 L 5.769531 2.894531 L 4.125 2.894531 L 4.125 3.714844 L 2.074219 3.714844 L 2.074219 5.359375 Z M 11.925781 5.359375 "/>
<path style=" stroke:none;fill-rule:nonzero;fill:rgb(0%,0%,0%);fill-opacity:1;" d="M 2.894531 6.179688 L 2.894531 7.410156 C 2.894531 9.246094 4.105469 10.800781 5.769531 11.328125 L 5.769531 14 L 8.230469 14 L 8.230469 11.328125 C 9.894531 10.800781 11.105469 9.246094 11.105469 7.410156 L 11.105469 6.179688 Z M 2.894531 6.179688 "/>
</g>
</svg>
