<?xml version="1.0" encoding="utf-8"?>
<svg width="12px" height="11px" viewBox="0 0 12 11" version="1.1" xmlns:xlink="http://www.w3.org/1999/xlink" xmlns="http://www.w3.org/2000/svg">
  <desc>Created with Lunacy</desc>
  <g id="synchronize-arrow-2">
    <path d="M6.14048 0.00271765C3.94027 0.0903917 2.01267 1.50272 1.26598 3.57422C1.24574 3.62993 1.18914 3.66376 1.13048 3.65522L0.285982 3.52822C0.191704 3.51635 0.0985358 3.55727 0.0434821 3.63472C-0.0104439 3.71376 -0.0145207 3.81665 0.0329821 3.89972L1.37248 6.24972C1.4111 6.31782 1.47938 6.36389 1.55698 6.37422C1.56798 6.37422 1.57898 6.37422 1.59048 6.37422C1.65641 6.3742 1.71967 6.34815 1.76648 6.30172L3.65148 4.42872C3.7188 4.36207 3.74267 4.2631 3.71313 4.17309C3.68358 4.08308 3.6057 4.01751 3.51198 4.00372L2.65348 3.87722C2.6146 3.87186 2.5806 3.84827 2.56198 3.81372C2.54289 3.7794 2.54104 3.73811 2.55698 3.70222C3.3816 1.8359 5.44566 0.851601 7.41492 1.38558C9.38418 1.91956 10.6683 3.81173 10.4371 5.83897C10.206 7.86621 8.5289 9.42075 6.48998 9.49772C6.1448 9.50393 5.87002 9.78879 5.87623 10.134C5.88245 10.4791 6.1673 10.7539 6.51248 10.7477L6.53598 10.7477C9.50286 10.6384 11.8193 8.14459 11.71 5.17772C11.6006 2.21084 9.10686 -0.105635 6.13998 0.00371765L6.14048 0.00271765Z" id="Path" fill="#3E3F42" stroke="none" />
    <path d="M1.25 2.5C1.94036 2.5 2.5 1.94036 2.5 1.25C2.5 0.559644 1.94036 0 1.25 0C0.559644 0 0 0.559644 0 1.25C0 1.94036 0.559644 2.5 1.25 2.5Z" transform="translate(5.089844 4.125244)" id="Oval" fill="#3E3F42" stroke="none" />
  </g>
</svg>