<?xml version="1.0" encoding="UTF-8"?>
<svg xmlns="http://www.w3.org/2000/svg" xmlns:xlink="http://www.w3.org/1999/xlink" width="14pt" height="14pt" viewBox="0 0 14 14" version="1.1">
<g id="surface1">
<path style=" stroke:none;fill-rule:nonzero;fill:rgb(0%,0%,0%);fill-opacity:1;" d="M 7 0 C 3.132812 0 0 3.132812 0 7 C 0 10.867188 3.132812 14 7 14 C 7.644531 14 8.167969 13.480469 8.167969 12.832031 C 8.167969 12.53125 8.054688 12.257812 7.863281 12.050781 C 7.679688 11.84375 7.570312 11.578125 7.570312 11.277344 C 7.570312 10.632812 8.09375 10.109375 8.738281 10.109375 L 10.109375 10.109375 C 12.257812 10.109375 14 8.367188 14 6.222656 C 14 2.785156 10.867188 0 7 0 Z M 2.722656 7 C 2.078125 7 1.554688 6.480469 1.554688 5.832031 C 1.554688 5.1875 2.078125 4.667969 2.722656 4.667969 C 3.367188 4.667969 3.890625 5.1875 3.890625 5.832031 C 3.890625 6.480469 3.367188 7 2.722656 7 Z M 5.054688 3.890625 C 4.410156 3.890625 3.890625 3.367188 3.890625 2.722656 C 3.890625 2.078125 4.410156 1.554688 5.054688 1.554688 C 5.699219 1.554688 6.222656 2.078125 6.222656 2.722656 C 6.222656 3.367188 5.699219 3.890625 5.054688 3.890625 Z M 8.945312 3.890625 C 8.300781 3.890625 7.777344 3.367188 7.777344 2.722656 C 7.777344 2.078125 8.300781 1.554688 8.945312 1.554688 C 9.589844 1.554688 10.109375 2.078125 10.109375 2.722656 C 10.109375 3.367188 9.589844 3.890625 8.945312 3.890625 Z M 11.277344 7 C 10.632812 7 10.109375 6.480469 10.109375 5.832031 C 10.109375 5.1875 10.632812 4.667969 11.277344 4.667969 C 11.921875 4.667969 12.445312 5.1875 12.445312 5.832031 C 12.445312 6.480469 11.921875 7 11.277344 7 Z M 11.277344 7 "/>
</g>
</svg>
