<?xml version="1.0" encoding="UTF-8"?>
<svg xmlns="http://www.w3.org/2000/svg" xmlns:xlink="http://www.w3.org/1999/xlink" width="14pt" height="14pt" viewBox="0 0 14 14" version="1.1">
<g id="surface1">
<path style=" stroke:none;fill-rule:nonzero;fill:rgb(0%,0%,0%);fill-opacity:1;" d="M 7 13.859375 C 6.078125 13.859375 5.179688 13.679688 4.335938 13.316406 C 3.519531 12.972656 2.785156 12.476562 2.15625 11.84375 C 1.523438 11.214844 1.027344 10.480469 0.683594 9.664062 C 0.320312 8.820312 0.140625 7.921875 0.140625 7 C 0.140625 6.078125 0.320312 5.179688 0.683594 4.335938 C 1.027344 3.519531 1.523438 2.785156 2.15625 2.15625 C 2.785156 1.523438 3.519531 1.027344 4.335938 0.683594 C 5.179688 0.320312 6.078125 0.140625 7 0.140625 C 7.917969 0.140625 8.8125 0.300781 9.65625 0.621094 C 10.46875 0.929688 11.203125 1.371094 11.835938 1.929688 C 12.46875 2.492188 12.964844 3.148438 13.3125 3.875 C 13.675781 4.632812 13.859375 5.4375 13.859375 6.265625 C 13.859375 7.308594 13.453125 8.292969 12.707031 9.035156 C 11.964844 9.78125 10.980469 10.1875 9.9375 10.1875 L 8.617188 10.1875 C 8.128906 10.1875 7.765625 10.554688 7.765625 11.039062 C 7.765625 11.257812 7.84375 11.457031 7.984375 11.597656 C 8.222656 11.835938 8.351562 12.15625 8.351562 12.507812 C 8.351562 12.878906 8.210938 13.21875 7.960938 13.472656 C 7.710938 13.722656 7.367188 13.859375 7 13.859375 Z M 7 0.640625 C 6.144531 0.640625 5.3125 0.8125 4.53125 1.140625 C 3.777344 1.464844 3.09375 1.921875 2.507812 2.507812 C 1.921875 3.09375 1.464844 3.773438 1.140625 4.53125 C 0.808594 5.3125 0.640625 6.144531 0.640625 7 C 0.640625 7.855469 0.8125 8.6875 1.140625 9.46875 C 1.464844 10.222656 1.921875 10.90625 2.507812 11.492188 C 3.09375 12.078125 3.773438 12.535156 4.53125 12.859375 C 5.316406 13.191406 6.144531 13.359375 7 13.359375 C 7.484375 13.359375 7.851562 12.992188 7.851562 12.507812 C 7.851562 12.289062 7.773438 12.09375 7.632812 11.949219 C 7.394531 11.714844 7.265625 11.390625 7.265625 11.039062 C 7.265625 10.671875 7.402344 10.328125 7.65625 10.078125 C 7.90625 9.824219 8.25 9.6875 8.617188 9.6875 L 9.9375 9.6875 C 10.847656 9.6875 11.707031 9.328125 12.355469 8.679688 C 13.003906 8.03125 13.359375 7.175781 13.359375 6.265625 C 13.359375 5.511719 13.195312 4.78125 12.863281 4.09375 C 12.542969 3.421875 12.085938 2.820312 11.503906 2.304688 C 10.917969 1.78125 10.238281 1.375 9.476562 1.085938 C 8.691406 0.789062 7.859375 0.640625 7 0.640625 Z M 11.039062 7.25 C 10.671875 7.25 10.328125 7.113281 10.078125 6.859375 C 9.824219 6.609375 9.6875 6.265625 9.6875 5.898438 C 9.6875 5.53125 9.824219 5.1875 10.078125 4.9375 C 10.328125 4.683594 10.671875 4.546875 11.039062 4.546875 C 11.40625 4.546875 11.75 4.683594 12 4.9375 C 12.253906 5.1875 12.390625 5.53125 12.390625 5.898438 C 12.390625 6.265625 12.253906 6.609375 12 6.859375 C 11.75 7.113281 11.410156 7.25 11.039062 7.25 Z M 11.039062 5.046875 C 10.554688 5.046875 10.1875 5.414062 10.1875 5.898438 C 10.1875 6.382812 10.554688 6.75 11.039062 6.75 C 11.523438 6.75 11.890625 6.382812 11.890625 5.898438 C 11.890625 5.414062 11.523438 5.046875 11.039062 5.046875 Z M 2.960938 7.25 C 2.59375 7.25 2.25 7.113281 2 6.859375 C 1.746094 6.609375 1.609375 6.265625 1.609375 5.898438 C 1.609375 5.53125 1.746094 5.1875 2 4.9375 C 2.25 4.683594 2.59375 4.546875 2.960938 4.546875 C 3.328125 4.546875 3.671875 4.683594 3.921875 4.9375 C 4.175781 5.1875 4.3125 5.53125 4.3125 5.898438 C 4.3125 6.265625 4.175781 6.609375 3.921875 6.859375 C 3.671875 7.113281 3.328125 7.25 2.960938 7.25 Z M 2.960938 5.046875 C 2.476562 5.046875 2.109375 5.414062 2.109375 5.898438 C 2.109375 6.382812 2.476562 6.75 2.960938 6.75 C 3.445312 6.75 3.8125 6.382812 3.8125 5.898438 C 3.8125 5.414062 3.445312 5.046875 2.960938 5.046875 Z M 8.835938 4.3125 C 8.46875 4.3125 8.125 4.175781 7.875 3.921875 C 7.621094 3.671875 7.484375 3.328125 7.484375 2.960938 C 7.484375 2.59375 7.621094 2.25 7.875 2 C 8.125 1.746094 8.46875 1.609375 8.835938 1.609375 C 9.203125 1.609375 9.546875 1.746094 9.796875 2 C 10.050781 2.25 10.1875 2.59375 10.1875 2.960938 C 10.1875 3.328125 10.050781 3.671875 9.796875 3.921875 C 9.546875 4.175781 9.203125 4.3125 8.835938 4.3125 Z M 8.835938 2.109375 C 8.347656 2.109375 7.984375 2.476562 7.984375 2.960938 C 7.984375 3.445312 8.347656 3.8125 8.835938 3.8125 C 9.320312 3.8125 9.6875 3.445312 9.6875 2.960938 C 9.6875 2.476562 9.320312 2.109375 8.835938 2.109375 Z M 5.164062 4.3125 C 4.796875 4.3125 4.453125 4.175781 4.203125 3.921875 C 3.949219 3.671875 3.8125 3.328125 3.8125 2.960938 C 3.8125 2.59375 3.949219 2.25 4.203125 2 C 4.453125 1.746094 4.796875 1.609375 5.164062 1.609375 C 5.53125 1.609375 5.875 1.746094 6.125 2 C 6.378906 2.25 6.515625 2.59375 6.515625 2.960938 C 6.515625 3.328125 6.378906 3.671875 6.125 3.921875 C 5.875 4.175781 5.53125 4.3125 5.164062 4.3125 Z M 5.164062 2.109375 C 4.679688 2.109375 4.3125 2.476562 4.3125 2.960938 C 4.3125 3.445312 4.679688 3.8125 5.164062 3.8125 C 5.652344 3.8125 6.015625 3.445312 6.015625 2.960938 C 6.015625 2.476562 5.648438 2.109375 5.164062 2.109375 Z M 5.164062 2.109375 "/>
</g>
</svg>
