<?xml version="1.0" encoding="utf-8"?>
<svg width="8px" height="10px" viewBox="0 0 8 10" version="1.1" xmlns:xlink="http://www.w3.org/1999/xlink" xmlns="http://www.w3.org/2000/svg">
  <desc>Created with Lunacy</desc>
  <g id="touch-id-lock-1">
    <path d="M6.885 3.8475L6.58125 3.8475L6.58125 2.73375C6.58125 1.22394 5.35731 0 3.8475 0C2.33769 0 1.11375 1.22394 1.11375 2.73375L1.11375 3.8475L0.81 3.8475C0.362649 3.8475 0 4.21015 0 4.6575L0 8.91C0 9.35735 0.362649 9.72 0.81 9.72L6.885 9.72C7.33235 9.72 7.695 9.35735 7.695 8.91L7.695 4.6575C7.695 4.21015 7.33235 3.8475 6.885 3.8475ZM5.36598 3.84745C5.47781 3.84745 5.56848 3.75679 5.56848 3.64495L5.56848 2.7337C5.56848 1.78308 4.79785 1.01245 3.84723 1.01245C2.89661 1.01245 2.12598 1.78308 2.12598 2.7337L2.12598 3.64495C2.12598 3.75679 2.21664 3.84745 2.32848 3.84745L5.36598 3.84745ZM5.56916 7.29004C5.5697 7.54546 5.51296 7.79776 5.40311 8.02835C5.35761 8.12823 5.26177 8.1958 5.1524 8.20509C5.04304 8.21438 4.93717 8.16395 4.87547 8.07317C4.81377 7.98239 4.80585 7.86539 4.85474 7.76713C4.92558 7.61808 4.96211 7.45506 4.96166 7.29004L4.96166 6.48004C4.96169 6.07859 4.74567 5.70819 4.39625 5.51055C4.04683 5.3129 3.61808 5.3186 3.27403 5.52545C3.13032 5.61201 2.94364 5.56569 2.85708 5.42197C2.77052 5.27826 2.81685 5.09159 2.96056 5.00503C3.49226 4.68513 4.15498 4.67619 4.69512 4.9816C5.23526 5.28702 5.5692 5.85953 5.56916 6.48004L5.56916 7.29004ZM2.81889 8.66934C3.25438 8.99418 3.81755 9.09464 4.33849 8.94039C4.49652 8.89057 4.58547 8.72329 4.5384 8.56442C4.49134 8.40555 4.32563 8.31371 4.16596 8.358C4.06245 8.3884 3.95511 8.40381 3.84723 8.40377C3.23231 8.40332 2.73392 7.90494 2.73348 7.29002L2.73348 6.48002C2.73334 6.37223 2.74889 6.26499 2.77965 6.16169C2.82751 6.00086 2.73594 5.83169 2.57512 5.78382C2.4143 5.73596 2.24512 5.82752 2.19726 5.98835C2.14984 6.14793 2.12583 6.31354 2.12598 6.48002L2.12598 7.29002C2.12661 7.83331 2.3834 8.3445 2.81889 8.66934ZM3.84785 6.32815C3.70805 6.32815 3.59473 6.21482 3.59473 6.07502C3.59473 5.93523 3.70805 5.8219 3.84785 5.8219C4.21114 5.82235 4.50553 6.11674 4.50598 6.48002L4.50598 7.08752C4.50598 7.22732 4.39265 7.34065 4.25285 7.34065C4.11305 7.34065 3.99973 7.22732 3.99973 7.08752L3.99973 6.48002C3.99973 6.39615 3.93173 6.32815 3.84785 6.32815ZM3.6957 7.28995L3.6957 6.68245C3.6957 6.54265 3.58238 6.42932 3.44258 6.42932C3.30278 6.42932 3.18945 6.54265 3.18945 6.68245L3.18945 7.28995C3.18968 7.65333 3.4842 7.94785 3.84758 7.94807C3.98738 7.94807 4.1007 7.83474 4.1007 7.69495C4.1007 7.55515 3.98738 7.44182 3.84758 7.44182C3.7637 7.44182 3.6957 7.37382 3.6957 7.28995Z" id="Shape" fill="#3E3F42" fill-rule="evenodd" stroke="none" />
  </g>
</svg>