<?xml version="1.0" encoding="UTF-8"?>
<svg xmlns="http://www.w3.org/2000/svg" xmlns:xlink="http://www.w3.org/1999/xlink" width="20pt" height="19pt" viewBox="0 0 20 19" version="1.1">
<g id="surface1">
<path style=" stroke:none;fill-rule:nonzero;fill:rgb(27.45098%,26.27451%,25.882353%);fill-opacity:1;" d="M 1.414062 9.5 C 1.414062 12.726562 3.382812 15.515625 6.230469 16.835938 L 2.15625 6.183594 C 1.679688 7.195312 1.414062 8.320312 1.414062 9.5 Z M 15.730469 9.089844 C 15.730469 8.082031 15.351562 7.382812 15.023438 6.839844 C 14.59375 6.167969 14.1875 5.601562 14.1875 4.929688 C 14.1875 4.179688 14.78125 3.484375 15.621094 3.484375 C 15.660156 3.484375 15.695312 3.488281 15.730469 3.488281 C 14.210938 2.160156 12.1875 1.351562 9.960938 1.351562 C 6.976562 1.351562 4.347656 2.8125 2.820312 5.023438 C 3.023438 5.03125 3.210938 5.035156 3.371094 5.035156 C 4.265625 5.035156 5.648438 4.929688 5.648438 4.929688 C 6.109375 4.90625 6.164062 5.550781 5.703125 5.601562 C 5.703125 5.601562 5.242188 5.652344 4.726562 5.679688 L 7.835938 14.507812 L 9.707031 9.15625 L 8.375 5.679688 C 7.914062 5.652344 7.480469 5.601562 7.480469 5.601562 C 7.019531 5.574219 7.074219 4.902344 7.535156 4.929688 C 7.535156 4.929688 8.945312 5.035156 9.785156 5.035156 C 10.679688 5.035156 12.0625 4.929688 12.0625 4.929688 C 12.523438 4.902344 12.578125 5.550781 12.117188 5.601562 C 12.117188 5.601562 11.652344 5.652344 11.140625 5.679688 L 14.226562 14.441406 L 15.078125 11.722656 C 15.449219 10.597656 15.730469 9.785156 15.730469 9.089844 Z M 10.109375 10.214844 L 7.546875 17.320312 C 8.3125 17.53125 9.121094 17.652344 9.960938 17.652344 C 10.957031 17.652344 11.910156 17.488281 12.800781 17.1875 C 12.777344 17.152344 12.753906 17.117188 12.738281 17.078125 Z M 17.460938 5.589844 C 17.496094 5.847656 17.515625 6.128906 17.515625 6.429688 C 17.515625 7.253906 17.355469 8.183594 16.867188 9.347656 L 14.257812 16.542969 C 16.796875 15.132812 18.507812 12.507812 18.507812 9.5 C 18.507812 8.082031 18.128906 6.75 17.460938 5.589844 Z M 9.960938 0 C 4.46875 0 0 4.261719 0 9.5 C 0 14.738281 4.46875 19 9.960938 19 C 15.453125 19 19.921875 14.738281 19.921875 9.5 C 19.921875 4.261719 15.453125 0 9.960938 0 Z M 9.960938 18.566406 C 4.71875 18.566406 0.457031 14.5 0.457031 9.5 C 0.457031 4.5 4.71875 0.4375 9.960938 0.4375 C 15.203125 0.4375 19.464844 4.5 19.464844 9.5 C 19.464844 14.5 15.203125 18.566406 9.960938 18.566406 Z M 9.960938 18.566406 "/>
</g>
</svg>
