<?xml version="1.0" encoding="UTF-8"?>
<svg xmlns="http://www.w3.org/2000/svg" xmlns:xlink="http://www.w3.org/1999/xlink" width="14pt" height="13pt" viewBox="0 0 14 13" version="1.1">
<g id="surface1">
<path style=" stroke:none;fill-rule:nonzero;fill:rgb(27.45098%,26.27451%,25.882353%);fill-opacity:1;" d="M 0.992188 6.5 C 0.992188 8.707031 2.367188 10.613281 4.363281 11.519531 L 1.507812 4.230469 C 1.175781 4.925781 0.992188 5.691406 0.992188 6.5 Z M 11.011719 6.21875 C 11.011719 5.53125 10.746094 5.050781 10.519531 4.679688 C 10.214844 4.222656 9.929688 3.832031 9.929688 3.375 C 9.929688 2.859375 10.347656 2.382812 10.933594 2.382812 C 10.960938 2.382812 10.988281 2.386719 11.011719 2.386719 C 9.949219 1.480469 8.53125 0.925781 6.972656 0.925781 C 4.882812 0.925781 3.042969 1.921875 1.976562 3.4375 C 2.117188 3.441406 2.246094 3.445312 2.359375 3.445312 C 2.984375 3.445312 3.953125 3.375 3.953125 3.375 C 4.277344 3.355469 4.316406 3.796875 3.992188 3.832031 C 3.992188 3.832031 3.667969 3.867188 3.308594 3.886719 L 5.484375 9.925781 L 6.796875 6.265625 L 5.863281 3.886719 C 5.542969 3.867188 5.234375 3.832031 5.234375 3.832031 C 4.914062 3.816406 4.953125 3.355469 5.273438 3.375 C 5.273438 3.375 6.261719 3.445312 6.847656 3.445312 C 7.476562 3.445312 8.445312 3.375 8.445312 3.375 C 8.765625 3.355469 8.804688 3.796875 8.480469 3.832031 C 8.480469 3.832031 8.15625 3.867188 7.796875 3.886719 L 9.960938 9.878906 L 10.554688 8.019531 C 10.8125 7.25 11.011719 6.695312 11.011719 6.21875 Z M 7.078125 6.988281 L 5.28125 11.847656 C 5.820312 11.996094 6.386719 12.078125 6.972656 12.078125 C 7.667969 12.078125 8.335938 11.964844 8.960938 11.761719 C 8.941406 11.738281 8.929688 11.710938 8.917969 11.683594 Z M 12.222656 3.824219 C 12.246094 4.003906 12.261719 4.191406 12.261719 4.398438 C 12.261719 4.964844 12.148438 5.601562 11.808594 6.394531 L 9.980469 11.320312 C 11.757812 10.351562 12.953125 8.558594 12.953125 6.5 C 12.953125 5.53125 12.6875 4.617188 12.222656 3.824219 Z M 6.972656 0 C 3.128906 0 0 2.914062 0 6.5 C 0 10.085938 3.128906 13 6.972656 13 C 10.816406 13 13.945312 10.085938 13.945312 6.5 C 13.945312 2.914062 10.816406 0 6.972656 0 Z M 6.972656 12.703125 C 3.304688 12.703125 0.320312 9.921875 0.320312 6.5 C 0.320312 3.082031 3.304688 0.296875 6.972656 0.296875 C 10.640625 0.296875 13.625 3.082031 13.625 6.5 C 13.625 9.921875 10.640625 12.703125 6.972656 12.703125 Z M 6.972656 12.703125 "/>
</g>
</svg>
