<?xml version="1.0" encoding="UTF-8"?>
<svg xmlns="http://www.w3.org/2000/svg" xmlns:xlink="http://www.w3.org/1999/xlink" width="17pt" height="16pt" viewBox="0 0 17 16" version="1.1">
<g id="surface1">
<path style=" stroke:none;fill-rule:nonzero;fill:rgb(27.45098%,26.27451%,25.882353%);fill-opacity:1;" d="M 1.203125 8 C 1.203125 10.714844 2.875 13.0625 5.296875 14.175781 L 1.832031 5.207031 C 1.429688 6.058594 1.203125 7.003906 1.203125 8 Z M 13.371094 7.652344 C 13.371094 6.804688 13.046875 6.21875 12.773438 5.761719 C 12.402344 5.195312 12.058594 4.71875 12.058594 4.152344 C 12.058594 3.519531 12.566406 2.933594 13.277344 2.933594 C 13.308594 2.933594 13.339844 2.9375 13.371094 2.9375 C 12.078125 1.820312 10.359375 1.136719 8.46875 1.136719 C 5.929688 1.136719 3.695312 2.367188 2.398438 4.230469 C 2.570312 4.234375 2.730469 4.238281 2.867188 4.238281 C 3.625 4.238281 4.800781 4.152344 4.800781 4.152344 C 5.191406 4.128906 5.238281 4.671875 4.847656 4.71875 C 4.847656 4.71875 4.453125 4.761719 4.015625 4.78125 L 6.660156 12.214844 L 8.25 7.710938 L 7.121094 4.78125 C 6.730469 4.761719 6.359375 4.71875 6.359375 4.71875 C 5.964844 4.695312 6.011719 4.128906 6.402344 4.152344 C 6.402344 4.152344 7.601562 4.238281 8.316406 4.238281 C 9.078125 4.238281 10.253906 4.152344 10.253906 4.152344 C 10.644531 4.128906 10.691406 4.671875 10.300781 4.71875 C 10.300781 4.71875 9.90625 4.761719 9.46875 4.78125 L 12.09375 12.160156 L 12.816406 9.871094 C 13.132812 8.921875 13.371094 8.242188 13.371094 7.652344 Z M 8.59375 8.601562 L 6.414062 14.582031 C 7.066406 14.765625 7.753906 14.863281 8.46875 14.863281 C 9.3125 14.863281 10.125 14.726562 10.878906 14.472656 C 10.859375 14.445312 10.84375 14.414062 10.828125 14.378906 Z M 14.839844 4.707031 C 14.871094 4.925781 14.890625 5.160156 14.890625 5.414062 C 14.890625 6.109375 14.75 6.890625 14.335938 7.871094 L 12.117188 13.933594 C 14.277344 12.742188 15.730469 10.53125 15.730469 8 C 15.730469 6.808594 15.40625 5.683594 14.839844 4.707031 Z M 8.46875 0 C 3.796875 0 0 3.589844 0 8 C 0 12.410156 3.796875 16 8.46875 16 C 13.136719 16 16.933594 12.410156 16.933594 8 C 16.933594 3.589844 13.136719 0 8.46875 0 Z M 8.46875 15.632812 C 4.011719 15.632812 0.386719 12.210938 0.386719 8 C 0.386719 3.792969 4.011719 0.367188 8.46875 0.367188 C 12.921875 0.367188 16.546875 3.792969 16.546875 8 C 16.546875 12.210938 12.921875 15.632812 8.46875 15.632812 Z M 8.46875 15.632812 "/>
</g>
</svg>
