<svg id="Layer_1" data-name="Layer 1" xmlns="http://www.w3.org/2000/svg" viewBox="0 0 461.1 518.12"><defs><style>.cls-1{fill:#929497;}</style></defs><path class="cls-1" d="M836.44,496.32a8,8,0,0,0,.76,4.09,10.22,10.22,0,0,1-3.18,5.33c-3.43,3-5.83,7.06-9.54,9.82l0,0a7.06,7.06,0,0,1-2.17,2.31l0,0c-3.21,4.74-7.58,8.43-11.38,12.64l0,0c-1.93,2.8-4.49,5-6.76,7.53l0,0A5.57,5.57,0,0,1,802,540.3h0c-.74,1-1.21,2.23-2.35,2.92l0,0c-1.82,2.46-3.26,5.19-5.22,7.55h0c-.86,1.84-1.37,3.83-2.52,5.54-.91,1-1.78,2.09-1.62,3.6-.31,1-.38,2.06-1.18,2.84l0,0c-1,2.17-.81,4.76-2.25,6.79l0,0c-1.5,7.28-3,14.55-4.22,21.89a80,80,0,0,0-1.89,18.26c-.35,8-.7,16.07-.62,24.11,0,1.58.37,3.25-.69,4.68l-.11,18.53a2.76,2.76,0,0,0-.3,1.06c-.17,15.4-1.18,30.78-1.5,46.18a8.3,8.3,0,0,1-1.16,4.62v0c-1.63,5.47-6.68,7.82-10.59,11.07-1.89,1.57-4,3.34-6.62,3.94h0c-1.11,1-2.65,1.29-3.84,2.17l0,0a39.42,39.42,0,0,1-12.93,4.54c-4.39.21-8.63,1.46-13,1.9-3.93,0-7.87,0-11.8,0-4.59-.52-9.09-1.69-13.72-1.89-7.43-1.14-14.38-3.75-21.2-6.79l0,0a49.19,49.19,0,0,1-10.58-5.18h0c-1.45-.84-3.25-1-4.47-2.3l0,0c-1.77-1-3.73-1.65-5.27-3l0,0c-5.55-1.92-7.34-5.91-7.23-11.6.31-16.41.87-32.83.93-49.26,0-7.2.1-14.43.26-21.64,0-1.48-.18-3,.75-4.34q0-6.27,0-12.54a74.51,74.51,0,0,0,0-15.94h0a2,2,0,0,0-2.1-.19c-5.49,2.58-11.36,2.25-17.13,2-5.52-.26-10.11-2.89-13.79-7-1.18-1.56-.63-3.38-.63-5.06q0-70.36,0-140.71c2.86-4.47,7.09-7.52,11.14-10.76h0a5.69,5.69,0,0,1,2.33-2.18l0,0a32.81,32.81,0,0,1,6-5.26l0,0c2.08-2,4.06-4,6.69-5.32h0a57.22,57.22,0,0,1,9.82-7.43l0,0a70.08,70.08,0,0,1,10.53-6.76l0,0a81.29,81.29,0,0,1,16.7-8.24.44.44,0,0,0,.51-.07c5-2.64,10.45-3.88,15.88-5.21a.68.68,0,0,0,.62-.05c3.16-1.42,6.68-1.25,10-2.18l1.29-.06c6.77-1.73,13.68-1.65,20.56-1.28,3.65.19,7.44-.29,10.94,1.28a.67.67,0,0,0,.63,0c3,.91,6.3.55,9.12,2.19a.64.64,0,0,0,.6.06c2.46,1.22,5.42,1.13,7.64,3h0c1.79.66,3.81.81,5.23,2.3l0,0a29,29,0,0,1,9,5.27l0,0c1.08.65,2.42.94,3.06,2.2h0c7.92,5,14.14,11.81,20.17,18.82l0,0a89.51,89.51,0,0,1,12.77,18.91.43.43,0,0,0,.1.49c1.2,1.27,1.44,3,2.24,4.49h0a46.61,46.61,0,0,1,5.22,11.28l0,0c1.28,1.54,1.51,3.52,2.25,5.28l0,0c3.17,6.56,5.79,13.36,8.63,20.06C834.26,490.57,836.1,493.16,836.44,496.32Z" transform="translate(-623.56 -214.25)"/><path class="cls-1" d="M1084.63,572.7l0,22.88c-.74,1.72-2.29,1.22-3.59,1.22-6.49,0-13,0-19.48,0-4,0-5,.86-5,4.7-.1,15.21.28,30.4.66,45.61.32,12.71-.28,25.46.2,38.17.3,8.08.61,16.16.61,24.25,0,3.84-.93,4.82-4.87,4.83q-25.11,0-50.21,0c-4.71,0-5.62-.94-5.62-5.76q0-41.73,0-83.47c0-1.35.32-2.74-.32-4l0,0a20.12,20.12,0,0,0-3.08-3l-59.22,0a7.26,7.26,0,0,0-4.53,4.55q0,43.73,0,87.43c-.77,3.2-2.93,4.31-6,4.31q-34.39,0-68.78,0c-1.81,0-3.48-.24-4.54-1.94l0,0c-1.52-1.36-1.19-3.17-1.19-4.89,0-32.13,0-64.26.07-96.39,0-2.91-.79-4.77-3.44-5.83l0,0c-4.55-.77-9.15-.26-13.72-.33q-10.25-.14-20.51,0c-2,0-3.06-.37-2.48-2.65,1.08-4.29,2.28-8.54,3.68-12.73a.57.57,0,0,0,.05-.59c.77-2.53.78-5.3,2.23-7.64l0,0c.42-3.45,2.47-5.74,5.31-7.47l0,0a33.58,33.58,0,0,1,5.27-4.54l0,0a95.22,95.22,0,0,1,9.78-8.27l0,0c.68-1.14,1.92-1.59,2.92-2.35h0a5.76,5.76,0,0,1,2.34-2.17l0,0a46.46,46.46,0,0,1,5.22-4.59l.72-.67c3-2.58,5.91-5.18,9.08-7.51l0,0a28.48,28.48,0,0,1,5.27-4.53l0,0c3-3.13,6.45-5.59,9.77-8.27l0,0a36,36,0,0,1,5.27-4.52l0,0a105.53,105.53,0,0,1,9.77-8.28l0,0c.69-1.13,1.93-1.58,2.91-2.35l0,0a5.87,5.87,0,0,1,2.35-2.15l0,0a35.59,35.59,0,0,1,5.27-4.53l-.05,0a109,109,0,0,1,9.8-8.27l0,0c4.81-4.48,9.88-8.66,15-12.77l0,0c1.82-1.43,3.21-3.36,5.26-4.53l0,0c4.14-3.66,8.06-7.57,12.77-10.53l0,0a1.33,1.33,0,0,1,2.15,0l-.05,0a85.76,85.76,0,0,1,7.55,5.28l-.05,0a13.43,13.43,0,0,1,3.07,2.22l0,0c4.06,2.07,7.53,5,11.25,7.57l-.05,0a58.43,58.43,0,0,1,7.55,5.24l0,0a23.92,23.92,0,0,1,4.53,3l0,0c1.09.63,2.43.93,3.06,2.21h0a89.55,89.55,0,0,1,11.2,7.59l0,0c1.11.61,2.47.9,3.06,2.22h0c7.54,4.59,14.71,9.72,21.92,14.8,2.94,2.08,6.2,3.72,8.83,6.23l0,0c.77.49,1.75.67,2.27,1.53l0,0a64.28,64.28,0,0,1,7.54,5.25l0,0a48.36,48.36,0,0,1,7.54,5.24h0c1,.7,2.37,1,3,2.2h0c7,4.05,13.51,9,20.18,13.59l0,0c.76.51,1.76.66,2.25,1.56l0,0a65.28,65.28,0,0,1,7.56,5.24l0,0a45.71,45.71,0,0,1,7.55,5.22h0C1082.34,570.36,1084.1,570.82,1084.63,572.7Z" transform="translate(-623.56 -214.25)"/><path class="cls-1" d="M642.32,275.94a.65.65,0,0,0,0-.62c.66-2.54.52-5.31,2.09-7.61l.18-1.31c1.12-2.51,1.16-5.44,3-7.66l0,0c.68-1.55.81-3.37,2.29-4.51l0,0c2.11-4,4.07-8.13,7.5-11.27l0,0a43.83,43.83,0,0,1,12.8-12.72l0,0a12.74,12.74,0,0,1,3-2.29l0,0c2.77-2.15,5.56-4.26,9-5.3l0,0c3.11-2.49,6.91-3.34,10.59-4.5,9.53-2.12,19-4.85,28.92-3.86,1.6.16,3.22.07,4.72.8,2.19.74,4.52.89,6.74,1.51,9.48,2,18,6.41,26.24,11.24,8.4,5.11,14.76,12.24,20.18,20.31l0,0c3.5,4.5,5.67,9.67,7.55,15l0,0c1.48,2.05,1.65,4.54,2.26,6.88a.52.52,0,0,0,0,.56c1.13,1.45,1.15,3.16,1.13,4.87a65.75,65.75,0,0,1,0,30.37c.28,2.71-1.3,4.94-2,7.4-.88,2-2.24,3.82-2.25,6.14a49.37,49.37,0,0,1-6.72,12.59l0,0c-3.11,4.58-6.28,9.11-10.54,12.74l0,0a32.05,32.05,0,0,1-5.24,4.56l0,0c-.94,1.51-2.47,2.22-4,3a.45.45,0,0,0-.49.17c-.69,1.18-2,1.49-3.06,2.12l0,0a33.92,33.92,0,0,1-9.94,5.23l-.27,0-.24.11c-2.51,1.72-5.45,2.38-8.28,3.18a77.18,77.18,0,0,1-31.3,2.36A54.2,54.2,0,0,1,692.58,362l0,0c-1.75-.77-3.8-.8-5.31-2.15-.76-.27-1.68-.05-2.27-.79-4.4-1.55-8.15-4.23-12-6.78l-.8-.71a49.22,49.22,0,0,1-14.9-14.3l0,0c-1.39-.52-1.57-2-2.29-3v0c-2.36-2.37-3.77-5.34-5.25-8.27l0,0c-1.32-1.22-1.54-3-2.28-4.51l0,0c-1.94-2.17-1.75-5.17-3-7.62a.58.58,0,0,0-.06-.58c-1.52-2.58-1.49-5.57-2.21-8.35a.69.69,0,0,0,0-.64c-1.76-6.25-1.72-12.65-1.29-19C641.24,282.23,640.76,278.93,642.32,275.94Z" transform="translate(-623.56 -214.25)"/><path class="cls-1" d="M833.55,272.94a.48.48,0,0,0,0-.54c.92-2,.57-4.44,2.22-6.17l0,0A26.73,26.73,0,0,1,841,255.73h0c2.32-5,6-8.93,9.85-12.68l0,0c2-1.79,3.68-3.9,6-5.31l0,0a40.25,40.25,0,0,1,12-7.52l0,0c1.4-1.58,3.56-1.41,5.26-2.28l0,0a47,47,0,0,1,15.79-4c12.22-1,24.13.23,35.44,5.38a4.29,4.29,0,0,1,1.2.87l0,0a28.23,28.23,0,0,1,9.06,5.19h0a51.11,51.11,0,0,1,17.24,17.23h0a20.44,20.44,0,0,1,4.42,7.71,1.14,1.14,0,0,0,.57,1.34c2,1.51,1.7,4,2.48,6v0a45.25,45.25,0,0,1,3.58,15.38c.51,7.13.78,14.3-1.37,21.28l0,0a40.66,40.66,0,0,1-4.54,14.24l0,0a57.85,57.85,0,0,1-22.46,26.27h0c-4.19,3.6-9.2,5.62-14.3,7.46l0,0c-2.32,1.55-5.11,1.48-7.65,2.27l-.29-.06-.28.11c-1.43,1-3.12,1-4.76,1.13-2.48.59-5.07.09-7.55.72a134.81,134.81,0,0,1-13.63-.56c-1.86-.37-3.87-.15-5.54-1.35l0,0c-2.48-.86-5.25-.75-7.53-2.28l0,0c-3.71-1.35-7.46-2.63-10.54-5.24l0,0c-1.2-.84-2.82-1-3.73-2.32l0,0c-1.31-.94-2.94-1.47-3.8-3v0a30.72,30.72,0,0,1-5.21-4.59l0,0a26.1,26.1,0,0,1-4.57-5.21l0,0c-1.51-.86-2-2.49-3-3.8l0,.05c-1.11-1.05-1.57-2.49-2.32-3.75l0,0a31.52,31.52,0,0,1-5.26-10.52l0,0c-1.46-2-1.56-4.48-2.29-6.75l0,0c-1.39-1.65-1.14-3.76-1.52-5.68-1.74-8.81-1.09-17.6.51-26.36A5.48,5.48,0,0,1,833.55,272.94Z" transform="translate(-623.56 -214.25)"/><path class="cls-1" d="M955.76,383.86l1.29,0a6,6,0,0,0,3.3.3,5.88,5.88,0,0,1,5.44,2.63c4.21,6,8.58,11.81,12.4,18l0,0a61.46,61.46,0,0,1,7.59,11.13l0,0c1.18.68,1.47,2,2.19,3h0c2.31,2.12,3.73,4.85,5.24,7.53l0,0a7.74,7.74,0,0,1,2.23,3.91.5.5,0,0,0,0,.54c-.93,1.8-2.63,1.1-4,1.1-17.33,0-34.66,0-52,0-1.35,0-2.74-.33-4,.32l-.31-.06-.3.1c-7.07,2.47-11.4,8.65-17.31,12.7l0,0a28.7,28.7,0,0,1-5.27,4.51l0,0a116.61,116.61,0,0,1-12.06,10.47l0,0a31.19,31.19,0,0,1-5.25,4.55l.05,0c-4.94,4.35-9.76,8.82-15,12.77l0,0a68.82,68.82,0,0,1-9.81,8.22l.05,0c-3.92,1.69-3.23-2.1-4.39-3.69l0,0c-2.43-6-5.46-11.81-7.56-18l0,0a129.87,129.87,0,0,1-7.53-17.23h0c-1.21-1.12-1.31-2.74-1.88-4.15a12.81,12.81,0,0,0-1.66-3.43c-.62-.57-.41-1.53-1-2.11s-.43-1.55-.66-2.33c-1.34-1.42-1.14-3.63-2.53-5s-1.13-3.22-2-4.69l0,0a36.69,36.69,0,0,1-5.26-13.52l0,0a15.86,15.86,0,0,1-.08-10.47.7.7,0,0,0,.06-.63c.57-2.47,1.11-4.94,3-6.82l0,0c.79-2.38,2.68-3.81,4.57-5.23l0,0a12.19,12.19,0,0,1,3-2.33l0,0c2.55-2.65,6-3.65,9.2-5.22a.45.45,0,0,0,.52-.07c2-1.65,4.63-1.43,6.93-2.19a.5.5,0,0,0,.56,0c6.11-2.15,12.42-1,18.64-.94,1.75,0,3.75-.38,5.36.9l0,0c8,.7,16.11,1,24.13,1.82a2.86,2.86,0,0,1,1.41.38l5.82.06c8.74,1,17.54,1.18,26.31,1.85C948.67,383,952.33,382.49,955.76,383.86Z" transform="translate(-623.56 -214.25)"/></svg>