<?xml version="1.0" encoding="UTF-8"?>
<svg width="24px" height="24px" viewBox="0 0 24 24" version="1.1" xmlns="http://www.w3.org/2000/svg" xmlns:xlink="http://www.w3.org/1999/xlink">
    <title>taking-pictures-circle-alternate</title>
    <g id="Page-1" stroke="none" stroke-width="1" fill="none" fill-rule="evenodd">
        <g id="Sign-up" transform="translate(-481.000000, -575.000000)" fill="#9EA0A5" fill-rule="nonzero">
            <g id="Form" transform="translate(126.000000, 256.000000)">
                <g id="Options" transform="translate(0.000000, 225.000000)">
                    <g id="Tab-1-Copy-2" transform="translate(336.000000, 80.000000)">
                        <g id="taking-pictures-circle-alternate" transform="translate(19.000000, 14.000000)">
                            <path d="M11.5199997,0 C5.15767957,0 0,5.15767957 0,11.5199997 C0,17.8823199 5.15767957,23.0399995 11.5199997,23.0399995 C17.8823199,23.0399995 23.0399995,17.8823199 23.0399995,11.5199997 C23.0331212,5.16053081 17.8794687,0.00687825356 11.5199997,0 Z M11.5199997,21.1199995 C6.21806626,21.1199995 1.91999996,16.8219332 1.91999996,11.5199997 C1.91999996,6.21806626 6.21806626,1.91999996 11.5199997,1.91999996 C16.8219332,1.91999996 21.1199995,6.21806626 21.1199995,11.5199997 C21.1141797,16.8195207 16.8195207,21.1141797 11.5199997,21.1199995 L11.5199997,21.1199995 Z" id="Shape"></path>
                            <path d="M16.7999996,7.19999984 L15.3599997,7.19999984 C15.1835941,7.18378925 15.0162411,7.11450511 14.8799997,7.00127984 L13.6387197,5.75999987 C13.3226563,5.46604032 12.9113501,5.29565666 12.4799997,5.27999988 L10.5599998,5.27999988 C10.1286494,5.29565666 9.71734321,5.46604032 9.40127979,5.75999987 L8.15999982,7.00127984 C8.02375836,7.11450511 7.85640536,7.18378925 7.67999983,7.19999984 L6.23999986,7.19999984 C5.17961316,7.19999984 4.3199999,8.0596131 4.3199999,9.1199998 L4.3199999,13.9199997 C4.3199999,14.9803864 5.17961316,15.8399996 6.23999986,15.8399996 L16.7999996,15.8399996 C17.8603863,15.8399996 18.7199996,14.9803864 18.7199996,13.9199997 L18.7199996,9.1199998 C18.7199996,8.0596131 17.8603863,7.19999984 16.7999996,7.19999984 Z M13.6799997,11.5199997 C13.6799997,12.7129348 12.7129348,13.6799997 11.5199997,13.6799997 C10.3270647,13.6799997 9.35999979,12.7129348 9.35999979,11.5199997 C9.35999979,10.3270647 10.3270647,9.35999979 11.5199997,9.35999979 C12.7129348,9.35999979 13.6799997,10.3270647 13.6799997,11.5199997 Z" id="Shape"></path>
                        </g>
                    </g>
                </g>
            </g>
        </g>
    </g>
</svg>