<?xml version="1.0" encoding="UTF-8"?>
<svg width="21px" height="22px" viewBox="0 0 21 22" version="1.1" xmlns="http://www.w3.org/2000/svg" xmlns:xlink="http://www.w3.org/1999/xlink">
    <title>database-cash-alternate</title>
    <g id="Page-1" stroke="none" stroke-width="1" fill="none" fill-rule="evenodd">
        <g id="Sign-up" transform="translate(-319.000000, -643.000000)" fill="#9EA0A5" fill-rule="nonzero">
            <g id="Form" transform="translate(126.000000, 256.000000)">
                <g id="Options" transform="translate(0.000000, 225.000000)">
                    <g id="Tab-1-Copy-4" transform="translate(173.000000, 147.000000)">
                        <g id="database-cash-alternate" transform="translate(20.000000, 15.000000)">
                            <path d="M2.47589993,15.9776996 L2.47589993,15.2675996 C2.47555455,15.1874569 2.51803316,15.1132303 2.58730645,15.0729292 C2.65657975,15.0326282 2.74210146,15.0323881 2.81159993,15.0722996 C4.07166359,15.7307864 5.43342561,16.1728419 6.83999982,16.3799996 C7.09486917,16.4195873 7.35447461,16.3479241 7.55294261,16.1831939 C7.75141062,16.0184637 7.86966517,15.7764999 7.87769979,15.5186996 L7.87769979,15.5006996 C7.8902107,15.0651442 7.57868305,14.687465 7.14869981,14.6168996 C4.22999989,14.1299996 2.47589993,12.9959997 2.47589993,12.1499997 L2.47589993,11.4398997 C2.47555455,11.359757 2.51803316,11.2855304 2.58730645,11.2452293 C2.65657975,11.2049283 2.74210146,11.2046882 2.81159993,11.2445997 C4.40769958,12.0561534 6.14573419,12.5512503 7.92989979,12.7025997 C8.27343647,12.7421673 8.60742611,12.5728704 8.77859977,12.2723997 L8.78939977,12.2543997 C8.94255185,11.9914396 8.95137411,11.6686206 8.81281267,11.3976884 C8.67425122,11.1267561 8.40735049,10.9449487 8.10449979,10.9151997 C4.61519988,10.5425997 2.47589993,9.25649975 2.47589993,8.32499978 L2.47589993,7.6175998 C2.47578741,7.53752881 2.5182368,7.46343095 2.58736686,7.42302786 C2.65649693,7.38262476 2.74189048,7.38200476 2.81159993,7.4213998 C5.08861525,8.52519107 7.59722942,9.0665431 10.1267997,9 C12.6568468,9.06535578 15.1656826,8.52309665 17.4428995,7.4186998 C17.5120513,7.37960898 17.5966912,7.37987855 17.6655925,7.41940906 C17.7344938,7.45893958 17.7774449,7.53187235 17.7785995,7.6112998 C17.7894349,7.86448678 17.7861297,8.11808119 17.7686995,8.37089978 C17.7131264,8.74702408 17.9025942,9.11692016 18.2402995,9.29159975 L18.3131995,9.32759975 C18.5822364,9.4634625 18.9024768,9.45012952 19.159289,9.29237341 C19.4161013,9.1346173 19.5727642,8.85499543 19.5731995,8.55359977 L19.5731995,4.5 C19.5731995,1.57679996 14.7041996,0 10.1231997,0 C5.54219985,0 0.687599982,1.57589996 0.677699982,4.49369988 L0.677699982,4.50269988 L0.677699982,15.9776996 C0.677699982,18.4013995 4.02569989,19.8962995 7.78049979,20.3363995 C8.10330816,20.3783287 8.4230659,20.2395999 8.61298138,19.9752225 C8.80289687,19.7108451 8.83228772,19.3635314 8.68949977,19.0709995 L8.67869977,19.0511995 C8.5405642,18.7793316 8.27587753,18.594321 7.97309979,18.5579995 C4.56029988,18.1664995 2.47589993,16.8983996 2.47589993,15.9776996 Z M10.1267997,1.79999995 C14.7932996,1.79999995 17.7722995,3.39569991 17.7767995,4.49999988 L17.7767995,4.50809988 C17.7659995,5.60879985 14.7896996,7.19999981 10.1267997,7.19999981 C5.46389986,7.19999981 2.47679993,5.60069985 2.47679993,4.49999988 C2.47679993,3.39929991 5.45669986,1.79999995 10.1267997,1.79999995 Z" id="Shape"></path>
                            <path d="M15.0740996,9.89999974 C11.8432339,9.89999974 9.22409976,12.5191339 9.22409976,15.7499996 C9.22409976,18.9808653 11.8432339,21.5999994 15.0740996,21.5999994 C18.3049653,21.5999994 20.9240994,18.9808653 20.9240994,15.7499996 C20.9201323,12.5207785 18.3033206,9.90396684 15.0740996,9.89999974 Z M14.3999996,19.5776995 L14.3999996,19.3499995 C14.3999996,19.2257354 14.2992637,19.1249995 14.1749996,19.1249995 L13.7249996,19.1249995 C13.3522074,19.1249995 13.0499997,18.8227917 13.0499997,18.4499995 C13.0499997,18.0772073 13.3522074,17.7749995 13.7249996,17.7749995 L15.5546996,17.7749995 C15.8097229,17.7747836 16.0288329,17.5938849 16.077327,17.3435147 C16.1258212,17.0931445 15.9900994,16.8435184 15.7535996,16.7480996 L13.8950996,16.0046996 C13.1235634,15.6972459 12.6459145,14.9191888 12.7209207,14.0920431 C12.7959268,13.2648975 13.4057431,12.5854525 14.2199996,12.4217997 C14.3249673,12.4007321 14.4003731,12.30836 14.3999996,12.2012997 L14.3999996,11.9249997 C14.3999996,11.5522075 14.7022074,11.2499997 15.0749996,11.2499997 C15.4477918,11.2499997 15.7499996,11.5522075 15.7499996,11.9249997 L15.7499996,12.1499997 C15.7499996,12.2742637 15.8507355,12.3749997 15.9749996,12.3749997 L16.4249996,12.3749997 C16.7977918,12.3749997 17.0999995,12.6772075 17.0999995,13.0499997 C17.0999995,13.4227919 16.7977918,13.7249996 16.4249996,13.7249996 L14.5943996,13.7249996 C14.3370665,13.7228569 14.1151072,13.9052464 14.0673214,14.1581128 C14.0195356,14.4109792 14.1596307,14.6617884 14.3999996,14.7536996 L16.2584996,15.4970996 C17.0300207,15.8051647 17.5071551,16.583856 17.4313053,17.4111382 C17.3554555,18.2384203 16.7446769,18.9173658 15.9299996,19.0799995 C15.8250319,19.1010671 15.7496261,19.1934391 15.7499996,19.3004995 L15.7499996,19.5776995 C15.7499996,19.9504917 15.4477918,20.2526995 15.0749996,20.2526995 C14.7022074,20.2526995 14.3999996,19.9504917 14.3999996,19.5776995 L14.3999996,19.5776995 Z" id="Shape"></path>
                        </g>
                    </g>
                </g>
            </g>
        </g>
    </g>
</svg>