<?xml version="1.0" encoding="UTF-8"?>
<svg width="16px" height="25px" viewBox="0 0 16 25" version="1.1" xmlns="http://www.w3.org/2000/svg" xmlns:xlink="http://www.w3.org/1999/xlink">
    <title>lightbulb</title>
    <g id="Page-1" stroke="none" stroke-width="1" fill="none" fill-rule="evenodd">
        <g id="Sign-up" transform="translate(-160.000000, -641.000000)" fill="#9EA0A5">
            <g id="Form" transform="translate(126.000000, 256.000000)">
                <g id="Options" transform="translate(0.000000, 225.000000)">
                    <g id="Tab-1-Copy-3" transform="translate(11.000000, 147.000000)">
                        <path d="M35.2521706,21.2201087 C35.2055094,21.711413 34.8018231,22.0790761 34.3301448,22.0790761 C34.300015,22.0790761 34.2696185,22.0774457 34.2389555,22.0744565 C33.7288816,22.0233696 33.3561251,21.5584239 33.4057193,21.0353261 C33.5537021,19.4798913 32.2210575,18.9277174 32.0688086,18.869837 C31.591531,18.688587 31.3414268,18.1453804 31.5136734,17.6543478 C31.6861866,17.1633152 32.2079924,16.905163 32.688203,17.0769022 C33.6776876,17.43125 35.4868099,18.7532609 35.2521706,21.2201087 M33.385455,36.6209239 C33.4305164,37.2195652 32.9937674,37.7421196 32.4098355,37.7883152 L29.7674771,37.9967391 C29.739747,37.998913 29.7120169,38 29.6848201,38 C29.1363508,38 28.6718716,37.5665761 28.6289433,36.9964674 C28.5841485,36.3978261 29.0208976,35.8752717 29.6045628,35.8293478 L32.2471878,35.6206522 C32.8319196,35.5771739 33.3403936,36.0225543 33.385455,36.6209239 M35.7057177,33.1883152 C35.7481127,33.7872283 35.3092306,34.3078804 34.7252987,34.3513587 L27.4426817,34.89375 C27.4165514,34.8956522 27.3906878,34.8967391 27.3648241,34.8967391 C26.8142217,34.8967391 26.3492093,34.4603261 26.3086807,33.888587 C26.2662856,33.2896739 26.7051677,32.7690217 27.2890996,32.7255435 L34.5717166,32.1831522 C35.1543153,32.1391304 35.6633226,32.5896739 35.7057177,33.1883152 M34.1901611,26.1725543 C33.8446015,26.361413 33.668622,26.730163 33.668622,27.1317935 L33.668622,28.7899457 L28.3359108,29.2165761 L28.3359108,27.1326087 C28.3359108,26.7459239 28.1807289,26.388587 27.8549003,26.19375 C26.0191144,25.0956522 25.1490826,23.4755435 25.1490826,21.2402174 C25.1490826,17.8953804 27.7759761,15.173913 30.9910677,15.173913 C34.2061593,15.173913 36.8474511,17.8953804 36.8474511,21.2402174 C36.8474511,23.4111413 35.8702318,25.2548913 34.1901611,26.1725543 M31.0022664,13 C26.6182445,13 23,16.6967391 23,21.2402174 C23,24.0108696 24.0697419,26.2421196 26.2028263,27.73125 L26.2028263,30.394837 C26.2028263,30.6980978 26.3780059,30.9877717 26.5955805,31.19375 C26.7920909,31.3796196 27.0747246,31.4817935 27.3402936,31.4817935 C27.368557,31.4817935 27.4096189,31.4804348 27.4381489,31.4782609 L34.7738264,30.876087 C35.3244288,30.8307065 35.8017065,30.3592391 35.8017065,29.792663 L35.8017065,27.7494565 C37.6681554,26.3703804 39,23.9855978 39,21.2402174 C39,16.6967391 35.3865549,13 31.0022664,13" id="lightbulb"></path>
                    </g>
                </g>
            </g>
        </g>
    </g>
</svg>