<?xml version="1.0" encoding="UTF-8"?>
<svg width="25px" height="22px" viewBox="0 0 25 22" version="1.1" xmlns="http://www.w3.org/2000/svg" xmlns:xlink="http://www.w3.org/1999/xlink">
    <title>browser-page-media</title>
    <g id="Page-1" stroke="none" stroke-width="1" fill="none" fill-rule="evenodd">
        <g id="Sign-up" transform="translate(-318.000000, -576.000000)" fill="#9EA0A5" fill-rule="nonzero" stroke="#FFFFFF" stroke-width="0.599999964">
            <g id="Form" transform="translate(126.000000, 256.000000)">
                <g id="Options" transform="translate(0.000000, 225.000000)">
                    <g id="Tab-1-Copy" transform="translate(174.000000, 80.000000)">
                        <g id="browser-page-media" transform="translate(19.000000, 16.000000)">
                            <path d="M23.039999,2.99999987 C23.039999,1.40941987 21.7505791,0.120000004 20.1599991,0.120000004 L2.87999987,0.120000004 C1.28941986,0.120000004 0,1.40941987 0,2.99999987 L0,16.9199993 C0,18.5105793 1.28941986,19.7999991 2.87999987,19.7999991 L20.1599991,19.7999991 C21.7505791,19.7999991 23.039999,18.5105793 23.039999,16.9199993 L23.039999,2.99999987 Z M9.26783959,2.03999992 C9.43094836,1.74407743 9.74210225,1.56029238 10.0799995,1.56029238 C10.4178969,1.56029238 10.7290507,1.74407743 10.8921595,2.03999992 C10.9845177,2.18341832 11.0356619,2.34947115 11.0399995,2.5199999 C11.0356619,2.69052864 10.9845177,2.85658147 10.8921595,2.99999987 C10.7290507,3.29592236 10.4178969,3.47970742 10.0799995,3.47970742 C9.74210225,3.47970742 9.43094836,3.29592236 9.26783959,2.99999987 C9.17548143,2.85658147 9.12433716,2.69052864 9.11999959,2.5199999 C9.12433716,2.34947115 9.17548143,2.18341832 9.26783959,2.03999992 L9.26783959,2.03999992 Z M5.90783974,2.03999992 C6.07094851,1.74407743 6.3821024,1.56029238 6.7199997,1.56029238 C7.057897,1.56029238 7.36905089,1.74407743 7.53215966,2.03999992 C7.62451782,2.18341832 7.67566209,2.34947115 7.67999966,2.5199999 C7.67566209,2.69052864 7.62451782,2.85658147 7.53215966,2.99999987 C7.36905089,3.29592236 7.057897,3.47970742 6.7199997,3.47970742 C6.3821024,3.47970742 6.07094851,3.29592236 5.90783974,2.99999987 C5.81548158,2.85658147 5.76433731,2.69052864 5.75999974,2.5199999 C5.76433731,2.34947115 5.81548158,2.18341832 5.90783974,2.03999992 Z M2.48831989,2.12831991 C2.64210733,1.78417705 2.98306305,1.56187993 3.35999985,1.55999994 C3.69690078,1.56388515 4.00628596,1.74673691 4.17215981,2.03999992 C4.26451797,2.18341832 4.31566224,2.34947115 4.31999981,2.5199999 C4.31566224,2.69052864 4.26451797,2.85658147 4.17215981,2.99999987 C4.00905104,3.29592236 3.69789715,3.47970742 3.35999985,3.47970742 C3.02210255,3.47970742 2.71094866,3.29592236 2.54783989,2.99999987 C2.45548173,2.85658147 2.40433746,2.69052864 2.39999989,2.5199999 C2.40088196,2.38460216 2.43100938,2.25099359 2.48831989,2.12831991 L2.48831989,2.12831991 Z M21.1199991,16.9199998 C21.1199991,17.4501926 20.6901924,17.8799992 20.1599991,17.8799992 L2.87999987,17.8799992 C2.34980654,17.8799992 1.91999991,17.4501926 1.91999991,16.9199998 L1.91999991,5.15999978 C1.91999991,5.02745144 2.02745157,4.91999979 2.1599999,4.91999979 L20.8799991,4.91999979 C21.0125474,4.91999979 21.1199991,5.02745144 21.1199991,5.15999978 L21.1199991,16.9199998 Z" id="Shape"></path>
                            <path d="M2.87999987,14.2799994 C2.88052925,14.9425216 3.41747755,15.4794699 4.07999982,15.4799993 L9.83999956,15.4799993 C10.5025218,15.4794699 11.0394701,14.9425216 11.0399995,14.2799994 L11.0399995,8.51999963 C11.0389424,7.85769634 10.5023029,7.32105683 9.83999956,7.31999968 L4.07999982,7.31999968 C3.41769653,7.32105683 2.88105702,7.85769634 2.87999987,8.51999963 L2.87999987,14.2799994 Z M4.31999981,8.99999961 C4.31999981,8.86745127 4.42745146,8.75999962 4.5599998,8.75999962 L9.35999958,8.75999962 C9.49254792,8.75999962 9.59999992,8.86745127 9.59999992,8.99999961 L9.59999992,12.6854394 C9.60018437,12.7936091 9.52798605,12.8885349 9.42369531,12.9172428 C9.31940458,12.9459508 9.20879773,12.9013456 9.15359959,12.8083194 L7.82207965,10.5791995 C7.74155546,10.4449135 7.60059487,10.3583435 7.4444093,10.3472556 C7.28822372,10.3361678 7.136447,10.401956 7.03775969,10.5235195 L4.74623979,13.3468794 C4.68224375,13.4256156 4.57564821,13.4556007 4.47998881,13.4217752 C4.3843294,13.3879497 4.32027663,13.2976228 4.31999981,13.1961594 L4.31999981,8.99999961 Z" id="Shape"></path>
                            <path d="M11.9999995,14.2799994 C12.0005288,14.9425216 12.5374771,15.4794699 13.1999994,15.4799993 L18.9599992,15.4799993 C19.6225214,15.4794699 20.1594697,14.9425216 20.1599991,14.2799994 L20.1599991,8.51999963 C20.1589419,7.85769634 19.6223024,7.32105683 18.9599992,7.31999968 L13.1999994,7.31999968 C12.5376961,7.32105683 12.0010566,7.85769634 11.9999995,8.51999963 L11.9999995,14.2799994 Z M13.4399994,8.99999961 C13.4399994,8.86745127 13.5474511,8.75999962 13.6799994,8.75999962 L18.4799992,8.75999962 C18.6125475,8.75999962 18.7199995,8.86745127 18.7199995,8.99999961 L18.7199995,12.6854394 C18.720184,12.7936091 18.6479856,12.8885349 18.5436949,12.9172428 C18.4394042,12.9459508 18.3287973,12.9013456 18.2735992,12.8083194 L16.9420792,10.5791995 C16.8615551,10.4449135 16.7205945,10.3583435 16.5644089,10.3472556 C16.4082233,10.3361678 16.2564466,10.401956 16.1577593,10.5235195 L13.8662394,13.3468794 C13.8022433,13.4256156 13.6956478,13.4556007 13.5999884,13.4217752 C13.504329,13.3879497 13.4402762,13.2976228 13.4399994,13.1961594 L13.4399994,8.99999961 Z" id="Shape"></path>
                        </g>
                    </g>
                </g>
            </g>
        </g>
    </g>
</svg>