<?xml version="1.0" encoding="UTF-8"?>
<svg width="24px" height="24px" viewBox="0 0 24 24" version="1.1" xmlns="http://www.w3.org/2000/svg" xmlns:xlink="http://www.w3.org/1999/xlink">
    <title>navigation-menu-3-alternate</title>
    <g id="Page-1" stroke="none" stroke-width="1" fill="none" fill-rule="evenodd">
        <g id="Sign-up" transform="translate(-481.000000, -642.000000)" fill="#9EA0A5" fill-rule="nonzero">
            <g id="Form" transform="translate(126.000000, 256.000000)">
                <g id="Options" transform="translate(0.000000, 225.000000)">
                    <g id="Tab-1-Copy-5" transform="translate(336.000000, 147.000000)">
                        <g id="navigation-menu-3-alternate" transform="translate(19.000000, 14.000000)">
                            <path d="M11.5199995,0 C5.15767945,0 0,5.15767945 0,11.5199995 C0,17.8823195 5.15767945,23.039999 11.5199995,23.039999 C17.8823195,23.039999 23.039999,17.8823195 23.039999,11.5199995 C23.0331207,5.1605307 17.8794683,0.0068782534 11.5199995,0 Z M11.5199995,21.1199991 C6.21806612,21.1199991 1.91999991,16.8219328 1.91999991,11.5199995 C1.91999991,6.21806612 6.21806612,1.91999991 11.5199995,1.91999991 C16.8219328,1.91999991 21.1199991,6.21806612 21.1199991,11.5199995 C21.1141792,16.8195203 16.8195203,21.1141792 11.5199995,21.1199991 L11.5199995,21.1199991 Z" id="Shape"></path>
                            <path d="M15.8399993,10.5599995 L7.19999968,10.5599995 C6.66980634,10.5599995 6.23999972,10.9898061 6.23999972,11.5199995 C6.23999972,12.0501928 6.66980634,12.4799994 7.19999968,12.4799994 L15.8399993,12.4799994 C16.3701926,12.4799994 16.7999992,12.0501928 16.7999992,11.5199995 C16.7999992,10.9898061 16.3701926,10.5599995 15.8399993,10.5599995 Z" id="Path"></path>
                            <path d="M15.8399993,14.3999994 L7.19999968,14.3999994 C6.66980634,14.3999994 6.23999972,14.829806 6.23999972,15.3599993 C6.23999972,15.8901926 6.66980634,16.3199993 7.19999968,16.3199993 L15.8399993,16.3199993 C16.3701926,16.3199993 16.7999992,15.8901926 16.7999992,15.3599993 C16.7999992,14.829806 16.3701926,14.3999994 15.8399993,14.3999994 Z" id="Path"></path>
                            <path d="M15.8399993,6.7199997 L7.19999968,6.7199997 C6.66980634,6.7199997 6.23999972,7.14980632 6.23999972,7.67999966 C6.23999972,8.21019299 6.66980634,8.63999961 7.19999968,8.63999961 L15.8399993,8.63999961 C16.3701926,8.63999961 16.7999992,8.21019299 16.7999992,7.67999966 C16.7999992,7.14980632 16.3701926,6.7199997 15.8399993,6.7199997 Z" id="Path"></path>
                        </g>
                    </g>
                </g>
            </g>
        </g>
    </g>
</svg>