<svg id="Capa_1" enable-background="new 0 0 512 512" height="512" viewBox="0 0 512 512" width="512" xmlns="http://www.w3.org/2000/svg"><g><path d="m361.084 30.024c0-16.582-13.442-30.024-30.024-30.024-16.582 0-30.024 13.442-30.024 30.024v45.856h60.048z"/><path d="m210.964 30.024c0-16.582-13.442-30.024-30.024-30.024-16.582 0-30.024 13.442-30.024 30.024v45.856h60.048z"/><path d="m436.132 195.976v-60.048h-75.048v-30.048h-60.048v30.048h-90.072v-30.048h-60.048v30.048h-75.048v60.048z"/><path d="m105.892 225.976v45.036c0 67.09 44.243 124.036 105.084 143.206v97.782h90.048v-97.781c60.841-19.17 105.084-76.116 105.084-143.206v-45.036h-300.216z"/></g></svg>