<svg id="Capa_1" enable-background="new 0 0 512 512" height="512" viewBox="0 0 512 512" width="512" xmlns="http://www.w3.org/2000/svg"><g id="XMLID_1939_"><path id="XMLID_1956_" d="m483.614 17.94c-1.358-2.166-3.535-3.162-5.699-3.162-3.137 0-6.245 2.095-6.785 5.761-7.127 48.389-63.188 82.297-29.301 130.188h46.752c23.823-18.065 24.981-85.019-4.967-132.787z"/><path id="XMLID_1955_" d="m441.829 180.832h46.752v39.637h-46.752z"/><path id="XMLID_1954_" d="m449.398 485.113c.197 7.544 7.216 16.264 15.807 16.264s15.61-8.72 15.807-16.264l6.708-234.539h-45.03z"/></g><g><path d="m111.577 273.2c-8.412 1.374-14.661 9.496-13.372 17.384s9.797 13.598 18.209 12.224c8.161-1.333 13.718-9.061 12.385-17.222-1.333-8.162-9.061-13.719-17.222-12.386z"/><path d="m179.845 383.004c-8.165 1.334-13.719 9.061-12.385 17.222 1.333 8.161 9.057 13.719 17.222 12.385 8.161-1.333 13.719-9.061 12.385-17.222-1.334-8.162-9.061-13.719-17.222-12.385z"/><ellipse cx="137.996" cy="159.996" rx="15" ry="15" transform="matrix(.633 -.774 .774 .633 -73.216 165.586)"/><path d="m379.268 139.182c0-81.058-86.936-139.192-176.943-139.182-96.541.011-196.612 66.917-196.612 244.181 0 189.194 119.179 267.819 215.732 267.819 65.729 0 120.979-36.453 120.979-99.274 0-97.994-74.711-45.848-74.711-118.834 0-76.295 111.555-34.374 111.555-154.71zm-248.528-23.597c24.488-4.001 47.666 12.667 51.667 37.155s-12.667 47.666-37.155 51.667-47.666-12.667-51.667-37.155 12.667-47.666 37.155-51.667zm-43.234 209.227c-10.247-7.022-16.959-17.459-18.908-29.39-1.949-11.932 1.092-23.962 8.571-33.88 7.27-9.646 17.77-16.02 29.571-17.948 24.488-4.001 47.666 12.667 51.667 37.155s-12.667 47.666-37.155 51.667c-11.797 1.927-23.784-.773-33.746-7.604zm102.013 117.407c-24.488 4.001-47.666-12.667-51.667-37.155s12.667-47.666 37.155-51.667 47.666 12.667 51.667 37.155c4.001 24.487-12.667 47.666-37.155 51.667zm74.733-286.804c-24.488 4.001-47.666-12.667-51.667-37.155s12.667-47.666 37.155-51.667 47.666 12.667 51.667 37.155-12.667 47.666-37.155 51.667z"/><ellipse cx="256.996" cy="111.004" rx="15" ry="15" transform="matrix(.747 -.665 .665 .747 -8.799 198.878)"/></g></svg>