<?xml version="1.0" encoding="UTF-8"?>
<svg width="15px" height="13px" viewBox="0 0 15 13" version="1.1" xmlns="http://www.w3.org/2000/svg" xmlns:xlink="http://www.w3.org/1999/xlink">
    <title>browser-com</title>
    <g id="Page-1" stroke="none" stroke-width="1" fill="none" fill-rule="evenodd">
        <g id="Dashboard" transform="translate(-314.000000, -598.000000)" fill="var(--main-color)" fill-rule="nonzero">
            <g id="Group-21" transform="translate(165.000000, 498.000000)">
                <g id="Group-25" transform="translate(1.000000, 48.000000)">
                    <g id="Group-20">
                        <g id="Group-16" transform="translate(148.000000, 51.000000)">
                            <g id="browser-com" transform="translate(0.000000, 1.000000)">
                                <path d="M14.3999991,2.24999987 C14.3999991,1.25588738 13.5941117,0.449999973 12.5999992,0.449999973 L1.79999989,0.449999973 C0.805887402,0.449999973 0,1.25588738 0,2.24999987 L0,10.95 C0,11.9441118 0.805887402,12.7499992 1.79999989,12.7499992 L12.5999992,12.7499992 C13.5941117,12.7499992 14.3999991,11.9441118 14.3999991,10.95 L14.3999991,2.24999987 Z M5.79239965,1.6499999 C5.89434264,1.46504835 6.08881381,1.35018269 6.29999962,1.35018269 C6.51118544,1.35018269 6.70565661,1.46504835 6.80759959,1.6499999 C6.86532344,1.7396364 6.89728861,1.84341942 6.89999959,1.94999988 C6.89728861,2.05658035 6.86532344,2.16036336 6.80759959,2.24999987 C6.70565661,2.43495142 6.51118544,2.54981708 6.29999962,2.54981708 C6.08881381,2.54981708 5.89434264,2.43495142 5.79239965,2.24999987 C5.73467581,2.16036336 5.70271064,2.05658035 5.69999966,1.94999988 C5.70271064,1.84341942 5.73467581,1.7396364 5.79239965,1.6499999 L5.79239965,1.6499999 Z M3.69239978,1.6499999 C3.79434276,1.46504835 3.98881394,1.35018269 4.19999975,1.35018269 C4.41118556,1.35018269 4.60565674,1.46504835 4.70759972,1.6499999 C4.76532357,1.7396364 4.79728873,1.84341942 4.79999971,1.94999988 C4.79728873,2.05658035 4.76532357,2.16036336 4.70759972,2.24999987 C4.60565674,2.43495142 4.41118556,2.54981708 4.19999975,2.54981708 C3.98881394,2.54981708 3.79434276,2.43495142 3.69239978,2.24999987 C3.63467593,2.16036336 3.60271076,2.05658035 3.59999979,1.94999988 C3.60271076,1.84341942 3.63467593,1.7396364 3.69239978,1.6499999 Z M1.55519991,1.7051999 C1.65131706,1.49011061 1.86441438,1.35117491 2.09999987,1.34999992 C2.31056295,1.35242817 2.50392868,1.46671052 2.60759984,1.6499999 C2.66532369,1.7396364 2.69728886,1.84341942 2.69999984,1.94999988 C2.69728886,2.05658035 2.66532369,2.16036336 2.60759984,2.24999987 C2.50565686,2.43495142 2.31118569,2.54981708 2.09999987,2.54981708 C1.88881406,2.54981708 1.69434289,2.43495142 1.59239991,2.24999987 C1.53467606,2.16036336 1.50271089,2.05658035 1.49999991,1.94999988 C1.5005512,1.8653763 1.51938084,1.78187095 1.55519991,1.7051999 L1.55519991,1.7051999 Z M13.1999999,10.9499998 C13.1999999,11.2813702 12.9313701,11.5499993 12.5999992,11.5499993 L1.79999989,11.5499993 C1.46862906,11.5499993 1.19999993,11.2813702 1.19999993,10.9499998 L1.19999993,3.59999979 C1.19999993,3.51715708 1.26715721,3.44999979 1.34999992,3.44999979 L13.0499992,3.44999979 C13.1328419,3.44999979 13.1999999,3.51715708 13.1999999,3.59999979 L13.1999999,10.9499998 Z" id="Shape"></path>
                            </g>
                        </g>
                    </g>
                </g>
            </g>
        </g>
    </g>
</svg>