<?xml version="1.0" encoding="UTF-8"?>
<svg width="12px" height="15px" viewBox="0 0 12 15" version="1.1" xmlns="http://www.w3.org/2000/svg" xmlns:xlink="http://www.w3.org/1999/xlink">
    <title>common-file-text-alternate</title>
    <g id="Page-1" stroke="none" stroke-width="1" fill="none" fill-rule="evenodd">
        <g id="Dashboard" transform="translate(-307.000000, -1194.000000)" fill="var(--main-color)" fill-rule="nonzero">
            <g id="Group-22" transform="translate(165.000000, 1094.000000)">
                <g id="Group-26" transform="translate(0.000000, 48.000000)">
                    <g id="Group-20-Copy">
                        <g id="Group-16" transform="translate(142.000000, 51.000000)">
                            <g id="common-file-text-alternate" transform="translate(0.000000, 1.000000)">
                                <path d="M7.9908,1.2876 L10.7124,4.0092 C10.7684814,4.06542332 10.8,4.14158853 10.8,4.221 L10.8,12.9 C10.8,13.0656854 10.6656854,13.2 10.5,13.2 L1.5,13.2 C1.33431458,13.2 1.2,13.0656854 1.2,12.9 L1.2,1.5 C1.2,1.33431458 1.33431458,1.2 1.5,1.2 L7.779,1.2 C7.85841147,1.2 7.93457668,1.23151863 7.9908,1.2876 Z M8.1516,0 L1.2,0 C0.5372583,0 0,0.5372583 0,1.2 L0,13.2 C0,13.8627417 0.5372583,14.4 1.2,14.4 L10.8,14.4 C11.4627417,14.4 12,13.8627417 12,13.2 L12,3.8484 C12,3.68928311 11.9367296,3.53669564 11.8242,3.4242 L8.5758,0.1758 C8.46330436,0.0632703751 8.31071689,0 8.1516,0 Z" id="Shape"></path>
                                <path d="M8.4,6.6 L3,6.6 C2.66862915,6.6 2.4,6.33137085 2.4,6 C2.4,5.66862915 2.66862915,5.4 3,5.4 L8.4,5.4 C8.73137085,5.4 9,5.66862915 9,6 C9,6.33137085 8.73137085,6.6 8.4,6.6 Z" id="Path"></path>
                                <path d="M8.4,9 L3,9 C2.66862915,9 2.4,8.73137085 2.4,8.4 C2.4,8.06862915 2.66862915,7.8 3,7.8 L8.4,7.8 C8.73137085,7.8 9,8.06862915 9,8.4 C9,8.73137085 8.73137085,9 8.4,9 Z" id="Path"></path>
                                <path d="M5.7,11.4 L3,11.4 C2.66862915,11.4 2.4,11.1313708 2.4,10.8 C2.4,10.4686292 2.66862915,10.2 3,10.2 L5.7,10.2 C6.03137085,10.2 6.3,10.4686292 6.3,10.8 C6.3,11.1313708 6.03137085,11.4 5.7,11.4 Z" id="Path"></path>
                            </g>
                        </g>
                    </g>
                </g>
            </g>
        </g>
    </g>
</svg>