<?xml version="1.0" encoding="UTF-8"?>
<svg width="15px" height="15px" viewBox="0 0 15 15" version="1.1" xmlns="http://www.w3.org/2000/svg" xmlns:xlink="http://www.w3.org/1999/xlink">
    <title>layout-dashboard</title>
    <g id="Page-1" stroke="none" stroke-width="1" fill="none" fill-rule="evenodd">
        <g id="Dashboard" transform="translate(-1075.000000, -597.000000)" fill="var(--main-color)" fill-rule="nonzero">
            <g id="Group-21" transform="translate(165.000000, 498.000000)">
                <g id="Group-25" transform="translate(1.000000, 48.000000)">
                    <g id="Graph-Copy-2" transform="translate(759.000000, 0.000000)">
                        <g id="Group-17" transform="translate(150.000000, 50.000000)">
                            <g id="layout-dashboard" transform="translate(0.000000, 1.000000)">
                                <path d="M0.475799972,0.471599972 C0.363270353,0.584095604 0.299999982,0.736683068 0.299999982,0.895799947 L0.299999982,7.50479955 C0.299999982,7.83617038 0.568629116,8.10479952 0.899999946,8.10479952 L5.69999966,8.10479952 C6.03137049,8.10479952 6.29999998,7.83617038 6.29999998,7.50479955 L6.29999998,0.904799946 C6.29999998,0.573429116 6.03137049,0.304799982 5.69999966,0.304799982 L0.899999946,0.295799982 C0.740883068,0.295799982 0.588295604,0.359070354 0.475799972,0.471599972 Z" id="Path"></path>
                                <path d="M13.4999992,0.295799982 L8.69999948,0.304199982 C8.36862865,0.304199982 8.09999952,0.572829116 8.09999952,0.904199946 L8.09999952,3.90419977 C8.09999952,4.2355706 8.36862865,4.50419973 8.69999948,4.50419973 L13.4999992,4.50419973 C13.83137,4.50419973 14.0999995,4.2355706 14.0999995,3.90419977 L14.0999995,0.895799947 C14.0999995,0.564429116 13.83137,0.295799982 13.4999992,0.295799982 Z" id="Path"></path>
                                <path d="M6.12419963,13.9283992 C6.23672925,13.8159035 6.29999998,13.6633161 6.29999998,13.5041992 L6.29999998,10.5041994 C6.29999998,10.1728285 6.03137049,9.90419941 5.69999966,9.90419941 L0.899999946,9.90419941 C0.568629116,9.90419941 0.299999982,10.1728285 0.299999982,10.5041994 L0.299999982,13.4951992 C0.299999982,13.82657 0.568629116,14.0951992 0.899999946,14.0951992 L5.69999966,14.1035993 C5.85903047,14.1037244 6.01160584,14.0407088 6.12419963,13.9283992 Z" id="Path"></path>
                                <path d="M13.4999992,6.30479962 L8.69999948,6.30479962 C8.36862865,6.30479962 8.09999952,6.57342876 8.09999952,6.90479959 L8.09999952,13.5047992 C8.09999952,13.83617 8.36862865,14.1047992 8.69999948,14.1047992 L13.4999992,14.0963992 C13.83137,14.0963992 14.0999995,13.82777 14.0999995,13.4963992 L14.0999995,6.90479959 C14.0999995,6.57342876 13.83137,6.30479962 13.4999992,6.30479962 Z" id="Path"></path>
                            </g>
                        </g>
                    </g>
                </g>
            </g>
        </g>
    </g>
</svg>