<?xml version="1.0" encoding="UTF-8"?>
<svg width="12px" height="15px" viewBox="0 0 12 15" version="1.1" xmlns="http://www.w3.org/2000/svg" xmlns:xlink="http://www.w3.org/1999/xlink">
    <title>check-shield-alternate</title>
    <g id="Page-1" stroke="none" stroke-width="1" fill="none" fill-rule="evenodd">
        <g id="Dashboard" transform="translate(-692.000000, -1192.000000)" fill="var(--main-color)" fill-rule="nonzero">
            <g id="Group-22" transform="translate(165.000000, 1094.000000)">
                <g id="Group-26" transform="translate(0.000000, 48.000000)">
                    <g id="Group-19-Copy" transform="translate(380.000000, 0.000000)">
                        <g id="Group-18" transform="translate(147.000000, 49.000000)">
                            <g id="check-shield-alternate" transform="translate(0.000000, 1.000000)">
                                <path d="M4.3308,8.8752 C4.61718734,9.16431264 5.08196399,9.17203673 5.3778,8.8926 L9.6408,4.8756 C9.84319439,4.69366508 9.93115249,4.41636789 9.8706301,4.15103632 C9.81010771,3.88570474 9.61060282,3.67397814 9.34933379,3.59780529 C9.08806477,3.52163245 8.80603343,3.59296742 8.6124,3.7842 L4.8816,7.2996 L3.975,6.3846 C3.78758503,6.1889441 3.50921538,6.10957778 3.24679909,6.17698172 C2.9843828,6.24438566 2.77871979,6.44808005 2.70879508,6.70983592 C2.63887036,6.97159179 2.71555569,7.25071191 2.9094,7.44 L4.3308,8.8752 Z" id="Path"></path>
                                <path d="M10.8312,0 L1.1682,0 C0.522107952,0.00231448509 -0.000334798676,0.526903893 -6.67191895e-05,1.173 L-6.67191895e-05,4.7682 C-0.0140338208,8.76884001 2.18678909,12.4488099 5.718,14.3292 C5.89412391,14.422854 6.10527609,14.422854 6.2814,14.3292 C9.81236349,12.4484672 12.013245,8.76878542 12.0000594,4.7682 L12.0000594,1.173 C12.0000594,0.526806652 11.4773892,0.00231373576 10.8312,0 L10.8312,0 Z M10.800054,4.7682 C10.8115157,8.20943237 8.98022246,11.3935935 6,13.1142 C3.01913776,11.3942322 1.18761044,8.20966412 1.19993754,4.7682 L1.19993754,1.5 C1.19993754,1.42043505 1.23160705,1.34412888 1.28786797,1.28786797 C1.34412888,1.23160705 1.42043505,1.2 1.5,1.2 L10.5,1.176 C10.6656854,1.176 10.800054,1.31031458 10.800054,1.476 L10.800054,4.7682 Z" id="Shape"></path>
                            </g>
                        </g>
                    </g>
                </g>
            </g>
        </g>
    </g>
</svg>